<?xml version="1.0" standalone="no"?>
<!DOCTYPE svg PUBLIC "-//W3C//DTD SVG 1.1//EN" "http://www.w3.org/Graphics/SVG/1.1/DTD/svg11.dtd" >
<svg xmlns="http://www.w3.org/2000/svg" xmlns:xlink="http://www.w3.org/1999/xlink" version="1.1">
<metadata>
Created by FontForge 20200511 at Sun Apr 30 17:17:55 2017
 By convertio
Copyright (c) Matthew Desmond, 2011. All rights reserved.
</metadata>
<defs>
<font id="Aldrich-Regular" horiz-adv-x="1270" >
  <font-face 
    font-family="Aldrich"
    font-weight="400"
    font-stretch="normal"
    units-per-em="2048"
    panose-1="2 0 0 0 0 0 0 0 0 0"
    ascent="1638"
    descent="-410"
    x-height="1065"
    cap-height="1434"
    bbox="-119 -809 2232 1872"
    underline-thickness="102"
    underline-position="-205"
    unicode-range="U+0020-F6C3"
  />
<missing-glyph horiz-adv-x="1024" 
 />
    <glyph glyph-name=".notdef" horiz-adv-x="1024" 
 />
    <glyph glyph-name=".null" horiz-adv-x="0" 
 />
    <glyph glyph-name="nonmarkingreturn" horiz-adv-x="614" 
 />
    <glyph glyph-name="space" unicode=" " horiz-adv-x="614" 
 />
    <glyph glyph-name="numbersign" unicode="#" horiz-adv-x="1577" 
d="M715 1434l-53 -351h360l53 351h176l-53 -351h195v-176h-222l-57 -381h279v-176h-306l-51 -350h-176l51 350h-360l-51 -350h-176l51 350h-191v176h217l58 381h-275v176h301l54 351h176zM578 526h360l57 381h-360z" />
    <glyph glyph-name="dollar" unicode="$" horiz-adv-x="1413" 
d="M143 389h199v-184h283v409h-256q-42 0 -79.5 16.5t-65.5 44t-44 65t-16 79.5v410q0 42 16 79.5t44 65t65.5 44t79.5 16.5h256v204h184v-204h256q42 0 79.5 -16.5t65.5 -44t44 -65t16 -79.5v-185h-199v185h-262v-410h256q42 0 79.5 -16t65.5 -44t44 -65.5t16 -79.5v-409
q0 -42 -16 -79.5t-44 -65.5t-65.5 -44t-79.5 -16h-256v-205h-184v205h-277q-42 0 -79.5 16t-65 44t-44 65.5t-16.5 79.5v184zM362 819h263v410h-263v-410zM809 614v-409h262v409h-262z" />
    <glyph glyph-name="percent" unicode="%" horiz-adv-x="1964" 
d="M782 899q0 -42 -16 -79.5t-44 -65.5t-65 -44t-79 -16h-230q-42 0 -79.5 16t-65 44t-44 65.5t-16.5 79.5v330q0 42 16.5 79.5t44 65t65 44t79.5 16.5h230q42 0 79 -16.5t65 -44t44 -65t16 -79.5v-330zM377 0l1022 1434h188l-1022 -1434h-188zM319 1257v-387h287v387h-287z
M1821 205q0 -42 -16 -79.5t-44 -65.5t-65.5 -44t-79.5 -16h-230q-42 0 -79 16t-65 44t-44 65.5t-16 79.5v330q0 42 16 79t44 65t65 44t79 16h230q42 0 79.5 -16t65.5 -44t44 -65t16 -79v-330zM1358 563v-387h287v387h-287z" />
    <glyph glyph-name="ampersand" unicode="&#x26;" horiz-adv-x="1538" 
d="M1436 0h-64q-206 0 -289 119q-85 -119 -288 -119h-303q-349 0 -349 348v72q0 134 48 215t139 108q-81 38 -123.5 116.5t-42.5 199.5v26q0 349 348 349h303q177 0 262.5 -86t85.5 -263v-86h-200v76q0 82 -36 120t-118 38h-291q-81 0 -117 -38t-36 -120v-94
q0 -78 32.5 -115.5t106.5 -40.5h932v-200h-252v-267q0 -81 36 -119t117 -38h99v-201zM829 201q82 0 118 38t36 119v267h-485q-82 0 -118 -37t-36 -119v-111q0 -81 36 -119t118 -38h331v0z" />
    <glyph glyph-name="quotesingle" unicode="'" horiz-adv-x="594" 
d="M365 762h-136l-65 455v217h266v-217z" />
    <glyph glyph-name="parenleft" unicode="(" horiz-adv-x="797" 
d="M674 -236v-194h-29q-114 0 -207 35.5t-158.5 101t-101 158.5t-35.5 207v962q0 114 35.5 207t101 158.5t158.5 101t207 35.5h29v-195h-29q-70 0 -125 -20t-93 -58.5t-58.5 -93.5t-20.5 -125v-983q0 -142 77.5 -219.5t219.5 -77.5h29z" />
    <glyph glyph-name="parenright" unicode=")" horiz-adv-x="797" 
d="M152 -236q142 0 219.5 77.5t77.5 219.5v983q0 70 -20 125t-58.5 93.5t-93.5 58.5t-125 20h-29v195h29q114 0 207 -35.5t158 -101t100.5 -158.5t35.5 -207v-962q0 -114 -35.5 -207t-100.5 -158.5t-158 -101t-207 -35.5h-29v194h29z" />
    <glyph glyph-name="asterisk" unicode="*" horiz-adv-x="1124" 
d="M377 598l-137 100l204 263l-321 92l53 161l313 -114l-12 334h170l-12 -334l313 114l53 -161l-321 -92l205 -263l-137 -100l-187 279z" />
    <glyph glyph-name="plus" unicode="+" horiz-adv-x="1446" 
d="M821 1137v-461h461v-197h-461v-461h-196v461h-461v197h461v461h196z" />
    <glyph glyph-name="comma" unicode="," horiz-adv-x="627" 
d="M309 -305h-145l147 305h-147v299h299v-299z" />
    <glyph glyph-name="hyphen" unicode="-" horiz-adv-x="807" 
d="M164 676h479v-197h-479v197z" />
    <glyph glyph-name="period" unicode="." horiz-adv-x="627" 
d="M164 299h299v-299h-299v299z" />
    <glyph glyph-name="slash" unicode="/" horiz-adv-x="905" 
d="M82 -102l543 1638h198l-553 -1638h-188z" />
    <glyph glyph-name="zero" unicode="0" horiz-adv-x="1495" 
d="M1311 205q0 -42 -16 -79.5t-44 -65.5t-65.5 -44t-79.5 -16h-717q-42 0 -79.5 16t-65.5 44t-44 65.5t-16 79.5v1024q0 42 16 79.5t44 65t65.5 44t79.5 16.5h717q42 0 79.5 -16.5t65.5 -44t44 -65t16 -79.5v-1024zM389 1229v-1024h717v1024h-717z" />
    <glyph glyph-name="one" unicode="1" horiz-adv-x="717" 
d="M512 1434v-1434h-205v1229h-246v205h451z" />
    <glyph glyph-name="two" unicode="2" horiz-adv-x="1413" 
d="M369 1229v-185h-205v185q0 42 16 79.5t44 65t65.5 44t79.5 16.5h649q42 0 79.5 -16.5t65 -44t44 -65t16.5 -79.5v-262q0 -42 -8 -75t-25.5 -59.5t-44.5 -47.5t-66 -40l-710 -333v-207h675v184h205v-389h-1085v377q0 42 8.5 75t25.5 59t44.5 47.5t64.5 39.5l711 334v297
h-649z" />
    <glyph glyph-name="three" unicode="3" horiz-adv-x="1348" 
d="M102 434h201v-76q0 -81 36 -119t118 -38h413q82 0 118 38t36 119v111q0 82 -36 119t-118 37h-424v200h418q75 3 107.5 40.5t32.5 115.5v94q0 82 -36.5 120t-117.5 38h-373q-81 0 -117 -38t-36 -120v-76h-201v86q0 349 348 349h385q177 0 262.5 -86t85.5 -263v-26
q0 -121 -42.5 -199.5t-123.5 -116.5q91 -27 139 -108t48 -215v-72q0 -348 -348 -348h-426q-349 0 -349 348v86z" />
    <glyph glyph-name="four" unicode="4" horiz-adv-x="1243" 
d="M41 494l707 940h241v-940h193v-197h-193v-297h-205v297h-743v197zM784 494v692l-520 -692h520z" />
    <glyph glyph-name="five" unicode="5" horiz-adv-x="1307" 
d="M1184 348q-3 -175 -88 -261.5t-260 -86.5h-385q-349 0 -349 348v86h201v-76q0 -81 36 -119t118 -38h372q82 0 118 38t36 119v193q0 81 -36 118.5t-118 37.5h-686v727h1004v-205h-799v-322h488q176 0 262 -85.5t86 -262.5v-211z" />
    <glyph glyph-name="six" unicode="6" horiz-adv-x="1434" 
d="M184 1229q0 42 16 79.5t44 65t65.5 44t79.5 16.5h655q42 0 79.5 -16.5t65.5 -44t44 -65t16 -79.5v-185h-205v185h-655v-410h655q42 0 79.5 -16t65.5 -44t44 -65.5t16 -79.5v-409q0 -42 -16 -79.5t-44 -65.5t-65.5 -44t-79.5 -16h-655q-42 0 -79.5 16t-65.5 44t-44 65.5
t-16 79.5v1024zM389 614v-409h655v409h-655z" />
    <glyph glyph-name="seven" unicode="7" horiz-adv-x="1208" 
d="M240 0l643 1229h-801v205h1106v-62l-711 -1372h-237z" />
    <glyph glyph-name="eight" unicode="8" horiz-adv-x="1409" 
d="M905 825q75 3 107 40.5t32 115.5v94q0 82 -36 120t-117 38h-373q-81 0 -117 -38t-36 -120v-94q0 -78 32.5 -115.5t106.5 -40.5h401zM911 201q82 0 118 38t36 119v111q0 82 -36 119t-118 37h-413q-82 0 -118 -37t-36 -119v-111q0 -81 36 -119t118 -38h413zM492 0
q-349 0 -349 348v72q0 134 48 215t139 108q-81 38 -123.5 116.5t-42.5 199.5v26q0 349 348 349h385q348 0 348 -349v-26q0 -121 -42.5 -199.5t-123.5 -116.5q91 -27 139 -108t48 -215v-72q0 -348 -348 -348h-426z" />
    <glyph glyph-name="nine" unicode="9" horiz-adv-x="1434" 
d="M1249 205q0 -42 -16 -79.5t-44 -65.5t-65.5 -44t-79.5 -16h-655q-42 0 -79.5 16t-65.5 44t-44 65.5t-16 79.5v184h205v-184h655v409h-655q-42 0 -79.5 16.5t-65.5 44t-44 65t-16 79.5v410q0 42 16 79.5t44 65t65.5 44t79.5 16.5h655q42 0 79.5 -16.5t65.5 -44t44 -65
t16 -79.5v-1024zM1044 819v410h-655v-410h655z" />
    <glyph glyph-name="colon" unicode=":" horiz-adv-x="627" 
d="M164 299h299v-299h-299v299zM164 1065h299v-299h-299v299z" />
    <glyph glyph-name="semicolon" unicode=";" horiz-adv-x="627" 
d="M309 -305h-145l147 305h-147v299h299v-299zM164 1065h299v-299h-299v299z" />
    <glyph glyph-name="less" unicode="&#x3c;" horiz-adv-x="1364" 
d="M82 690l1118 479v-208l-897 -377l897 -375v-209l-1118 479v211z" />
    <glyph glyph-name="equal" unicode="=" horiz-adv-x="1446" 
d="M164 913h1118v-196h-1118v196zM164 438h1118v-196h-1118v196z" />
    <glyph glyph-name="greater" unicode="&#x3e;" horiz-adv-x="1364" 
d="M1282 479l-1118 -479v209l895 375l-895 377v208l1118 -479v-211z" />
    <glyph glyph-name="question" unicode="?" horiz-adv-x="1147" 
d="M412 668q0 42 8.5 75t25.5 59t44.5 47.5t64.5 39.5l264 127v213h-491v-185h-205v185q0 42 16 79.5t44 65t65.5 44t79.5 16.5h491q42 0 79.5 -16.5t65.5 -44t44 -65t16 -79.5v-176q0 -42 -8 -75t-25 -59.5t-44.5 -47.5t-65.5 -40l-265 -126v-173h-204v136v0zM371 299h299
v-299h-299v299z" />
    <glyph glyph-name="at" unicode="@" horiz-adv-x="2171" 
d="M645 807q0 41 15.5 76.5t42 62.5t62.5 42.5t77 15.5h270q39 0 74.5 -15t62 -40.5t43 -60t17.5 -73.5v189h196v-807h285v743q0 70 -20 125t-58.5 93.5t-93.5 58.5t-125 20h-815q-70 0 -125 -20t-93 -58.5t-58.5 -93.5t-20.5 -125v-868q0 -71 20 -127.5t58 -96t93 -60.5
t126 -21h1065q0 -39 -16 -75t-43 -63t-63 -43t-75 -16h-860q-114 0 -207 35.5t-158.5 101t-101 158.5t-35.5 207v860q0 114 35.5 207t101 158.5t158.5 101t207 35.5h799q114 0 207 -35.5t158.5 -101t101 -158.5t35.5 -207v-735q0 -41 -15.5 -77t-42.5 -62.5t-62.5 -42
t-76.5 -15.5h-285q-39 0 -73.5 14t-60.5 38.5t-42.5 57.5t-19.5 70q-3 -37 -20.5 -70t-44 -57.5t-60.5 -38.5t-72 -14h-270q-41 0 -77 15.5t-62.5 42t-42 62.5t-15.5 77v610zM1309 807h-467v-610h467v610z" />
    <glyph glyph-name="A" unicode="A" horiz-adv-x="1434" 
d="M819 1434l553 -1434h-205l-127 330h-647l-127 -330h-205l553 1434h205zM471 535h490l-244 632z" />
    <glyph glyph-name="B" unicode="B" horiz-adv-x="1440" 
d="M1118 748q45 -14 82 -40t63 -66.5t40 -95.5t14 -126v-72q0 -348 -348 -348h-785v1434h744q348 0 348 -349v-26q0 -121 -38.5 -197.5t-119.5 -113.5zM385 625v-424h578q81 0 117 38t36 119v111q0 82 -36 119t-117 37h-578zM385 1233v-408h551q74 3 106.5 40.5t32.5 115.5
v94q0 82 -36 120t-117 38h-537z" />
    <glyph glyph-name="C" unicode="C" horiz-adv-x="1516" 
d="M184 1229q0 42 16 79.5t44 65t65.5 44t79.5 16.5h778q42 0 79.5 -16.5t65.5 -44t44 -65t16 -79.5v-185h-205v185h-778v-1024h778v184h205v-184q0 -42 -16 -79.5t-44 -65.5t-65.5 -44t-79.5 -16h-778q-42 0 -79.5 16t-65.5 44t-44 65.5t-16 79.5v1024z" />
    <glyph glyph-name="D" unicode="D" horiz-adv-x="1559" 
d="M913 205q143 0 220 77t77 220v430q0 70 -20 125t-58.5 93.5t-93.5 58.5t-125 20h-524v-1024h524zM184 0v1434h729q115 0 207.5 -35.5t158 -101t101 -158.5t35.5 -207v-430q0 -114 -35.5 -207t-101 -158.5t-158 -101t-207.5 -35.5h-729z" />
    <glyph glyph-name="E" unicode="E" horiz-adv-x="1352" 
d="M184 1434h1045v-205h-840v-410h717v-205h-717v-409h840v-205h-1045v1434z" />
    <glyph glyph-name="F" unicode="F" horiz-adv-x="1331" 
d="M184 1434h1045v-205h-840v-410h717v-205h-717v-614h-205v1434z" />
    <glyph glyph-name="G" unicode="G" horiz-adv-x="1556" 
d="M184 1229q0 42 16 79.5t44 65t65.5 44t79.5 16.5h778q42 0 79.5 -16.5t65.5 -44t44 -65t16 -79.5v-185h-205v185h-778v-1024h778v348h-389v205h594v-553q0 -42 -16 -79.5t-44 -65.5t-65.5 -44t-79.5 -16h-778q-42 0 -79.5 16t-65.5 44t-44 65.5t-16 79.5v1024z" />
    <glyph glyph-name="H" unicode="H" horiz-adv-x="1599" 
d="M1415 1434v-1434h-205v614h-821v-614h-205v1434h205v-615h821v615h205z" />
    <glyph glyph-name="I" unicode="I" horiz-adv-x="573" 
d="M389 1434v-1434h-205v1434h205z" />
    <glyph glyph-name="J" unicode="J" horiz-adv-x="1317" 
d="M143 451h205v-246h580v1229h205v-1229q0 -42 -16.5 -79.5t-44 -65.5t-65 -44t-79.5 -16h-580q-42 0 -79.5 16t-65 44t-44 65.5t-16.5 79.5v246z" />
    <glyph glyph-name="K" unicode="K" horiz-adv-x="1395" 
d="M389 1434v-619l684 619h289l-776 -703l807 -731h-289l-715 645v-645h-205v1434h205z" />
    <glyph glyph-name="L" unicode="L" horiz-adv-x="1188" 
d="M389 1434v-1229h737v-205h-942v1434h205z" />
    <glyph glyph-name="M" unicode="M" horiz-adv-x="1909" 
d="M924 0l-535 1051v-1051h-205v1434h224l546 -1080l547 1080h223v-1434h-204v1051l-535 -1051h-61z" />
    <glyph glyph-name="N" unicode="N" horiz-adv-x="1640" 
d="M389 0h-205v1434h205l862 -1112v1112h205v-1434h-205l-862 1112v-1112z" />
    <glyph glyph-name="O" unicode="O" horiz-adv-x="1597" 
d="M1413 205q0 -42 -16 -79.5t-44 -65.5t-65.5 -44t-79.5 -16h-819q-42 0 -79.5 16t-65.5 44t-44 65.5t-16 79.5v1024q0 42 16 79.5t44 65t65.5 44t79.5 16.5h819q42 0 79.5 -16.5t65.5 -44t44 -65t16 -79.5v-1024zM389 1229v-1024h819v1024h-819z" />
    <glyph glyph-name="P" unicode="P" horiz-adv-x="1419" 
d="M184 0v1434h785q348 0 348 -349v-204q0 -349 -348 -349h-580v-532h-205zM389 737h569q82 0 118 36t36 118v184q0 82 -36 118t-118 36h-569v-492z" />
    <glyph glyph-name="Q" unicode="Q" horiz-adv-x="1597" 
d="M1413 205q0 -42 -16 -79.5t-44 -65.5t-65.5 -44t-79.5 -16h-307v-266h-205v266h-307q-42 0 -79.5 16t-65.5 44t-44 65.5t-16 79.5v1024q0 42 16 79.5t44 65t65.5 44t79.5 16.5h819q42 0 79.5 -16.5t65.5 -44t44 -65t16 -79.5v-1024zM901 371v-166h307v1024h-819v-1024
h307v166h205z" />
    <glyph glyph-name="R" unicode="R" horiz-adv-x="1475" 
d="M1317 922q0 -300 -256 -342l270 -580h-227l-266 573h-449v-573h-205v1434h785q348 0 348 -349v-163zM389 778h569q82 0 118 36t36 118v143q0 82 -36 118t-118 36h-569v-451z" />
    <glyph glyph-name="S" unicode="S" horiz-adv-x="1475" 
d="M389 614q-42 0 -79.5 16.5t-65.5 44t-44 65t-16 79.5v410q0 42 16 79.5t44 65t65.5 44t79.5 16.5h696q42 0 79.5 -16.5t65.5 -44t44 -65t16 -79.5v-185h-205v185h-696v-410h696q42 0 79.5 -16t65.5 -44t44 -65.5t16 -79.5v-409q0 -42 -16 -79.5t-44 -65.5t-65.5 -44
t-79.5 -16h-716q-42 0 -79.5 16t-65.5 44t-44 65.5t-16 79.5v184h205v-184h716v409h-696z" />
    <glyph glyph-name="T" unicode="T" 
d="M61 1434h1147v-205h-471v-1229h-205v1229h-471v205z" />
    <glyph glyph-name="U" unicode="U" horiz-adv-x="1597" 
d="M184 1434h205v-1229h819v1229h205v-1229q0 -42 -16 -79.5t-44 -65.5t-65.5 -44t-79.5 -16h-819q-42 0 -79.5 16t-65.5 44t-44 65.5t-16 79.5v1229z" />
    <glyph glyph-name="V" unicode="V" horiz-adv-x="1454" 
d="M614 0l-553 1434h220l446 -1180l447 1180h219l-553 -1434h-226z" />
    <glyph glyph-name="W" unicode="W" horiz-adv-x="2007" 
d="M471 0l-410 1434h205l318 -1141l317 1141h205l317 -1141l318 1141h205l-410 -1434h-225l-307 1075l-308 -1075h-225z" />
    <glyph glyph-name="X" unicode="X" horiz-adv-x="1407" 
d="M319 1434l383 -537l385 537h248l-508 -711l519 -723h-248l-396 551l-393 -551h-248l519 723l-508 711h247z" />
    <glyph glyph-name="Y" unicode="Y" horiz-adv-x="1393" 
d="M279 1434l417 -670l418 670h238l-553 -865v-569h-205v569l-553 865h238z" />
    <glyph glyph-name="Z" unicode="Z" horiz-adv-x="1401" 
d="M152 1434h1126v-62l-813 -1167h813v-205h-1155v61l813 1168h-784v205z" />
    <glyph glyph-name="bracketleft" unicode="[" horiz-adv-x="838" 
d="M184 1536h531v-195h-326v-1577h326v-194h-531v1966z" />
    <glyph glyph-name="backslash" unicode="\" horiz-adv-x="905" 
d="M635 -102l-553 1638h199l542 -1638h-188z" />
    <glyph glyph-name="bracketright" unicode="]" horiz-adv-x="838" 
d="M449 1341h-326v195h530v-1966h-530v194h326v1577z" />
    <glyph glyph-name="asciicircum" unicode="^" horiz-adv-x="1143" 
d="M674 1434l387 -611h-205l-285 461l-284 -461h-205l387 611h205z" />
    <glyph glyph-name="underscore" unicode="_" 
d="M-2 -430h1274v-156h-1274v156z" />
    <glyph glyph-name="grave" unicode="`" horiz-adv-x="772" 
d="M649 1249h-188l-338 226h299z" />
    <glyph glyph-name="a" unicode="a" horiz-adv-x="1229" 
d="M164 465q0 41 15.5 76.5t42 62.5t62.5 42.5t76 15.5h508v206h-643v197h643q41 0 77 -15.5t62.5 -42t42 -62.5t15.5 -77v-868h-197v180q-3 -37 -20 -70t-43.5 -57.5t-60.5 -38.5t-72 -14h-312q-40 0 -76 15.5t-62.5 42t-42 62.5t-15.5 77v268zM360 197h508v268h-508v-268z
" />
    <glyph glyph-name="b" unicode="b" 
d="M1106 197q0 -41 -15.5 -77t-42 -62.5t-62.5 -42t-77 -15.5h-549q-40 0 -76 15.5t-62.5 42t-42 62.5t-15.5 77v1278h196v-598q2 39 18 73.5t42.5 60t61.5 40t75 14.5h352q41 0 77 -15.5t62.5 -42t42 -62.5t15.5 -77v-671zM360 868v-671h549v671h-549z" />
    <glyph glyph-name="c" unicode="c" horiz-adv-x="1229" 
d="M360 868v-671h508v180h197v-180q0 -41 -15.5 -77t-42 -62.5t-62.5 -42t-77 -15.5h-508q-40 0 -76 15.5t-62.5 42t-42 62.5t-15.5 77v671q0 41 15.5 77t42 62.5t62.5 42t76 15.5h508q41 0 77 -15.5t62.5 -42t42 -62.5t15.5 -77v-180h-197v180h-508z" />
    <glyph glyph-name="d" unicode="d" 
d="M164 868q0 41 15.5 77t42 62.5t62.5 42t76 15.5h549v410h197v-1475h-197v180q-3 -37 -20 -70t-43.5 -57.5t-60.5 -38.5t-72 -14h-353q-40 0 -76 15.5t-62.5 42t-42 62.5t-15.5 77v671zM360 197h549v671h-549v-671z" />
    <glyph glyph-name="e" unicode="e" horiz-adv-x="1229" 
d="M1065 432h-705v-235h705v-197h-705q-40 0 -76 15.5t-62.5 42t-42 62.5t-15.5 77v671q0 41 15.5 77t42 62.5t62.5 42t76 15.5h508q41 0 77 -15.5t62.5 -42t42 -62.5t15.5 -77v-436zM360 868v-239h508v239h-508z" />
    <glyph glyph-name="f" unicode="f" horiz-adv-x="1012" 
d="M559 1278v-213h350v-197h-350v-868h-197v868h-260v197h260v213q0 41 15.5 76.5t42.5 62.5t63 42.5t76 15.5h350v-197h-350z" />
    <glyph glyph-name="g" unicode="g" 
d="M164 868q0 41 15.5 77t42 62.5t62.5 42t76 15.5h353q39 0 74 -14.5t61.5 -40t43 -60t17.5 -73.5v188h197v-1298q0 -41 -15.5 -77t-42 -62.5t-62.5 -42t-77 -15.5h-622v197h622v274h-549q-40 0 -76 15.5t-62.5 42t-42 62.5t-15.5 77v630zM909 238v630h-549v-630h549z" />
    <glyph glyph-name="h" unicode="h" 
d="M1106 0h-197v868h-549v-868h-196v1475h196v-598q2 39 18 73.5t42.5 60t61.5 40t75 14.5h352q41 0 77 -15.5t62.5 -42t42 -62.5t15.5 -77v-868z" />
    <glyph glyph-name="i" unicode="i" horiz-adv-x="545" 
d="M371 1065v-1065h-197v1065h197zM164 1475h217v-205h-217v205z" />
    <glyph glyph-name="j" unicode="j" horiz-adv-x="545" 
d="M174 -233v1298h197v-1298q0 -41 -15.5 -77t-42 -62.5t-62.5 -42t-77 -15.5h-154v197h154zM164 1475h217v-205h-217v205z" />
    <glyph glyph-name="k" unicode="k" horiz-adv-x="1124" 
d="M868 0l-508 455v-455h-196v1475h196v-830l467 420h277l-572 -514l613 -551h-277z" />
    <glyph glyph-name="l" unicode="l" horiz-adv-x="524" 
d="M360 1475v-1475h-196v1475h196z" />
    <glyph glyph-name="m" unicode="m" horiz-adv-x="1819" 
d="M1008 868v-868h-197v868h-451v-868h-196v1065h196v-188q2 39 18 73.5t42.5 60t61.5 40t75 14.5h254q39 0 74 -14.5t62 -40t43.5 -60t17.5 -73.5q2 39 17.5 73.5t42 60t61.5 40t75 14.5h254q41 0 77 -15.5t62.5 -42t42 -62.5t15.5 -77v-868h-197v868h-450z" />
    <glyph glyph-name="n" unicode="n" 
d="M1106 0h-197v868h-549v-868h-196v1065h196v-188q2 39 18 73.5t42.5 60t61.5 40t75 14.5h352q41 0 77 -15.5t62.5 -42t42 -62.5t15.5 -77v-868z" />
    <glyph glyph-name="o" unicode="o" horiz-adv-x="1249" 
d="M1085 197q0 -41 -15.5 -77t-42 -62.5t-62 -42t-76.5 -15.5h-529q-40 0 -76 15.5t-62.5 42t-42 62.5t-15.5 77v671q0 41 15.5 77t42 62.5t62.5 42t76 15.5h529q41 0 76.5 -15.5t62 -42t42 -62.5t15.5 -77v-671zM360 868v-671h529v671h-529z" />
    <glyph glyph-name="p" unicode="p" 
d="M1106 197q0 -41 -15.5 -77t-42 -62.5t-62.5 -42t-77 -15.5h-549v-430h-196v1495h196v-180q3 38 20 70.5t43 57t60.5 38.5t73.5 14h352q41 0 77 -15.5t62.5 -42t42 -62.5t15.5 -77v-671zM909 197v671h-549v-671h549z" />
    <glyph glyph-name="q" unicode="q" 
d="M164 868q0 41 15.5 77t42 62.5t62.5 42t76 15.5h549q41 0 77 -15.5t62.5 -42t42 -62.5t15.5 -77v-1298h-197v618q-1 -39 -17.5 -73t-43 -59.5t-61.5 -40.5t-74 -15h-353q-40 0 -76 15.5t-62.5 42t-42 62.5t-15.5 77v671zM909 197v671h-549v-671h549z" />
    <glyph glyph-name="r" unicode="r" horiz-adv-x="1044" 
d="M360 868v-868h-196v1065h196v-188q2 39 18 73.5t42.5 60t61.5 40t75 14.5h209q41 0 76.5 -15.5t62.5 -42t42.5 -62.5t15.5 -77v-180h-197v180h-406z" />
    <glyph glyph-name="s" unicode="s" horiz-adv-x="1147" 
d="M807 197v247h-467q-41 0 -77 15.5t-62.5 42t-42 62.5t-15.5 77v227q0 41 15.5 77t42 62.5t62.5 42t77 15.5h623v-197h-623v-227h467q41 0 76.5 -15.5t62.5 -42t42.5 -62.5t15.5 -77v-247q0 -41 -15.5 -77t-42.5 -62.5t-62.5 -42t-76.5 -15.5h-664v197h664z" />
    <glyph glyph-name="t" unicode="t" horiz-adv-x="1073" 
d="M102 1065h260v328h197v-328h350v-197h-350v-671h350v-197h-350q-40 0 -76 15.5t-63 42t-42.5 62.5t-15.5 77v671h-260v197z" />
    <glyph glyph-name="u" unicode="u" 
d="M164 1065h196v-868h549v868h197v-1065h-197v180q-3 -37 -20 -70t-43.5 -57.5t-60.5 -38.5t-72 -14h-353q-40 0 -76 15.5t-62.5 42t-42 62.5t-15.5 77v868z" />
    <glyph glyph-name="v" unicode="v" horiz-adv-x="1139" 
d="M467 0l-426 1065h205l323 -829l324 829h205l-426 -1065h-205z" />
    <glyph glyph-name="w" unicode="w" horiz-adv-x="1655" 
d="M385 0l-344 1065h199l252 -803l235 803h201l235 -803l252 803h199l-344 -1065h-205l-238 782l-237 -782h-205z" />
    <glyph glyph-name="x" unicode="x" horiz-adv-x="1171" 
d="M1092 1065l-387 -520l405 -545h-238l-286 385l-287 -385h-238l406 545l-387 520h237l269 -360l268 360h238z" />
    <glyph glyph-name="y" unicode="y" horiz-adv-x="1118" 
d="M236 -430l223 526l-418 969h207l311 -733l311 733h207l-645 -1495h-196z" />
    <glyph glyph-name="z" unicode="z" horiz-adv-x="1147" 
d="M143 1065h881v-53l-567 -815h567v-197h-901v53l567 815h-547v197z" />
    <glyph glyph-name="braceleft" unicode="{" horiz-adv-x="795" 
d="M672 -236v-194h-29q-95 0 -173 27t-133.5 78t-85.5 124.5t-30 167.5q0 35 3.5 76t7 81.5t7 77t3.5 62.5q0 57 -11 94t-34 58.5t-60 30t-88 8.5h-8v196h8q51 0 88 8.5t60 30t34 58.5t11 94q0 26 -3.5 62t-7 76.5t-7 81.5t-3.5 77q0 94 30 167.5t85.5 124.5t133.5 78
t173 27h29v-195h-29q-105 0 -161 -51.5t-56 -154.5q0 -31 3 -67t7 -73.5t7 -74.5t3 -70q0 -106 -32 -180.5t-105 -116.5q73 -43 105 -117.5t32 -179.5q0 -33 -3 -70t-7 -74.5t-7 -73.5t-3 -67q0 -103 56 -155t161 -52h29z" />
    <glyph glyph-name="bar" unicode="|" horiz-adv-x="573" 
d="M389 1536v-1966h-205v1966h205z" />
    <glyph glyph-name="braceright" unicode="}" horiz-adv-x="795" 
d="M152 -236q105 0 161 52t56 155q0 31 -3.5 67t-7 73.5t-7 74.5t-3.5 70q0 105 32.5 179.5t104.5 117.5q-72 42 -104.5 116.5t-32.5 180.5q0 33 3.5 70t7 74.5t7 73.5t3.5 67q0 103 -56 154.5t-161 51.5h-29v195h29q95 0 173 -27t133 -78t85 -124.5t30 -167.5q0 -36 -3 -77
t-7 -81.5t-7 -76.5t-3 -62q0 -57 10.5 -94t34 -58.5t60 -30t87.5 -8.5h9v-196h-9q-51 0 -87.5 -8.5t-60 -30t-34 -58.5t-10.5 -94q0 -26 3 -62.5t7 -77t7 -81.5t3 -76q0 -94 -30 -167.5t-85 -124.5t-133 -78t-173 -27h-29v194h29z" />
    <glyph glyph-name="asciitilde" unicode="~" horiz-adv-x="1210" 
d="M123 487q1 66 23.5 122.5t62 98t94.5 65.5t121 24q68 0 116.5 -19t89 -42.5t79.5 -42.5t88 -19q27 0 48.5 10t37 27t24.5 39t11 47h169q-1 -65 -23 -121.5t-62 -98.5t-95 -66t-121 -24q-68 0 -116.5 19t-89 42.5t-79 42.5t-87.5 19q-27 0 -48.5 -10t-37.5 -27t-24.5 -39
t-10.5 -47h-170z" />
    <glyph glyph-name="uni00A0" unicode="&#xa0;" horiz-adv-x="614" 
 />
    <glyph glyph-name="exclamdown" unicode="&#xa1;" horiz-adv-x="586" 
d="M350 471l82 -901h-278l82 901h114zM143 1004h299v-299h-299v299z" />
    <glyph glyph-name="cent" unicode="&#xa2;" horiz-adv-x="1229" 
d="M360 868v-671h508v180h197v-180q0 -41 -15.5 -77t-42 -62.5t-62.5 -42t-77 -15.5h-155v-223h-197v223h-156q-40 0 -76 15.5t-62.5 42t-42 62.5t-15.5 77v671q0 41 15.5 77t42 62.5t62.5 42t76 15.5h156v223h197v-223h155q41 0 77 -15.5t62.5 -42t42 -62.5t15.5 -77v-180
h-197v180h-508z" />
    <glyph glyph-name="sterling" unicode="&#xa3;" horiz-adv-x="1466" 
d="M299 1229q0 42 16 79.5t44 65t65.5 44t79.5 16.5h545q42 0 79 -16.5t65 -44t44 -65t16 -79.5v-185h-204v185h-545v-438h434v-166h-434v-420h635v213h204v-213q0 -42 -16 -79.5t-44 -65.5t-65 -44t-79 -16h-430q-42 0 -78.5 15.5t-64 42t-44 62.5t-18.5 77q-1 -41 -18 -77
t-45 -62.5t-64.5 -42t-77.5 -15.5h-213v205h213v420h-217v166h217v438v0z" />
    <glyph glyph-name="currency" unicode="&#xa4;" horiz-adv-x="1319" 
d="M1049 199l-158 155q-51 -32 -110 -49.5t-122 -17.5q-65 0 -123 18.5t-108 50.5l-158 -157l-127 127l158 157q-32 50 -51 108.5t-19 123.5q0 63 18 122.5t50 108.5l-156 158l127 127l158 -158q50 32 108 51t123 19q63 0 122.5 -19t109.5 -51l158 158l127 -127l-158 -158
q32 -49 50.5 -108.5t18.5 -122.5q0 -65 -18.5 -123.5t-50.5 -108.5l158 -157zM420 715q0 -50 18.5 -94.5t51 -77.5t76 -52.5t93.5 -19.5t94 19.5t76.5 52.5t51 77.5t18.5 94.5t-18.5 94t-51 77t-76.5 52.5t-94 19.5t-93.5 -19.5t-76 -52.5t-51 -77t-18.5 -94z" />
    <glyph glyph-name="yen" unicode="&#xa5;" horiz-adv-x="1393" 
d="M164 707h342l-465 727h238l417 -670l418 670h238l-465 -727h342v-166h-430v-135h430v-166h-430v-240h-205v240h-430v166h430v135h-430v166z" />
    <glyph glyph-name="brokenbar" unicode="&#xa6;" horiz-adv-x="573" 
d="M389 455v-885h-205v885h205zM389 1536v-885h-205v885h205z" />
    <glyph glyph-name="section" unicode="&#xa7;" horiz-adv-x="1413" 
d="M401 635q-40 2 -76 18.5t-62.5 44t-42 64t-15.5 78.5v389q0 42 16 79.5t44 65t65.5 44t79.5 16.5h614q42 0 79.5 -16.5t65.5 -44t44 -65t16 -79.5v-185h-205v185h-614v-389h614q42 0 79.5 -16t65.5 -44t44 -65.5t16 -79.5v-389h-197q41 -1 77 -18t62.5 -45t42 -64.5
t15.5 -77.5v-389q0 -42 -16 -79.5t-44 -65.5t-65.5 -44t-79.5 -16h-635q-42 0 -79.5 16t-65.5 44t-44 65.5t-16 79.5v184h205v-184h635v389h-614q-42 0 -79.5 16t-65.5 44t-44 65.5t-16 79.5v389h196zM1024 635h-614v-389h614v389z" />
    <glyph glyph-name="dieresis" unicode="&#xa8;" horiz-adv-x="879" 
d="M539 1466h217v-217h-217v217zM123 1466h217v-217h-217v217z" />
    <glyph glyph-name="copyright" unicode="&#xa9;" horiz-adv-x="1679" 
d="M102 717q0 161 55 296t153.5 233t234 153t295.5 55q161 0 296 -55t233 -153t153 -233t55 -296q0 -160 -55 -295.5t-153 -233.5t-233 -153t-296 -55q-160 0 -295.5 55t-234 153t-153.5 233.5t-55 295.5zM840 121q131 0 239.5 44t186.5 123t121 188.5t43 240.5t-43 240.5
t-121 188.5t-186.5 123t-239.5 44q-132 0 -240.5 -44t-186 -123t-120.5 -188.5t-43 -240.5t43 -240.5t120.5 -188.5t186 -123t240.5 -44zM518 999q0 23 9 43.5t24.5 36t36 24.5t43.5 9h409q23 0 43.5 -9t36 -24.5t24.5 -36t9 -43.5v-129h-139v103h-357v-512h357v102h139
v-129q0 -23 -9 -43.5t-24.5 -35.5t-36 -24t-43.5 -9h-409q-23 0 -43.5 9t-36 24t-24.5 35.5t-9 43.5v565z" />
    <glyph glyph-name="ordfeminine" unicode="&#xaa;" horiz-adv-x="926" 
d="M143 985q0 33 12.5 62t33.5 50t50 33.5t62 12.5h324v137h-432v154h432q33 0 61.5 -12.5t50 -34t33.5 -50.5t12 -61v-612h-151v139q-3 -31 -16.5 -56.5t-34.5 -44t-48.5 -28.5t-58.5 -10h-172q-33 0 -62 12t-50 33t-33.5 49.5t-12.5 60.5v166zM143 485h639v-133h-639v133z
M295 815h336v176h-336v-176z" />
    <glyph glyph-name="guillemotleft" unicode="&#xab;" horiz-adv-x="1130" 
d="M102 500l447 438v-205l-250 -264l250 -264v-205l-447 438v62zM541 500l446 438v-205l-250 -264l250 -264v-205l-446 438v62z" />
    <glyph glyph-name="logicalnot" unicode="&#xac;" horiz-adv-x="1446" 
d="M164 840h1118v-598h-197v401h-921v197z" />
    <glyph glyph-name="registered" unicode="&#xae;" horiz-adv-x="1679" 
d="M102 717q0 161 55 296t153.5 233t234 153t295.5 55q161 0 296 -55t233 -153t153 -233t55 -296q0 -160 -55 -295.5t-153 -233.5t-233 -153t-296 -55q-160 0 -295.5 55t-234 153t-153.5 233.5t-55 295.5zM840 121q131 0 239.5 44t186.5 123t121 188.5t43 240.5t-43 240.5
t-121 188.5t-186.5 123t-239.5 44q-132 0 -240.5 -44t-186 -123t-120.5 -188.5t-43 -240.5t43 -240.5t120.5 -188.5t186 -123t240.5 -44zM1165 829q0 -167 -141 -188l150 -319h-152l-148 315h-192v-315h-139v790h432q190 0 190 -192v-91zM682 778h266q45 0 61.5 17t16.5 61
v37q0 45 -16.5 62.5t-61.5 17.5h-266v-195z" />
    <glyph glyph-name="macron" unicode="&#xaf;" horiz-adv-x="967" 
d="M123 1434h721v-166h-721v166z" />
    <glyph glyph-name="degree" unicode="&#xb0;" horiz-adv-x="897" 
d="M123 1128q0 67 26 126.5t70 103.5t103.5 70t126.5 26t126 -26t103.5 -70t70 -103.5t25.5 -126.5t-25.5 -126t-70 -103t-103.5 -70t-126 -26t-126.5 26t-103.5 70t-70 103t-26 126zM283 1128q0 -35 12.5 -66.5t35 -55t52.5 -37t66 -13.5q35 0 65.5 13.5t52.5 37t34.5 55
t12.5 66.5q0 36 -12.5 67t-34.5 54.5t-52.5 37t-65.5 13.5q-36 0 -66 -13.5t-52.5 -37t-35 -54.5t-12.5 -67z" />
    <glyph glyph-name="plusminus" unicode="&#xb1;" horiz-adv-x="1446" 
d="M821 1137v-379h461v-197h-461v-346h461v-197h-1118v197h461v346h-461v197h461v379h196z" />
    <glyph glyph-name="twosuperior" unicode="&#xb2;" horiz-adv-x="831" 
d="M123 885q0 48 20.5 77.5t63.5 51.5l344 162v114h-285v-92h-143v133q0 24 10.5 43t28 32.5t38.5 20.5t42 7h333q22 0 43 -7.5t38 -21t27.5 -32.5t10.5 -42v-151q0 -48 -19.5 -78t-64.5 -51l-344 -162v-70h299v92h144v-235h-586v209v0z" />
    <glyph glyph-name="threesuperior" unicode="&#xb3;" horiz-adv-x="848" 
d="M123 934h141v-60q0 -57 55 -57h209q56 0 56 57v56q0 31 -13.5 44t-42.5 13h-192v143h188q26 2 37.5 15.5t11.5 42.5v47q0 29 -13 43t-42 14h-188q-56 0 -56 -57v-59h-141v63q0 195 195 195h192q195 0 195 -195v-12q0 -54 -15 -92.5t-47 -63.5q35 -23 53.5 -63.5
t18.5 -102.5v-35q0 -99 -47.5 -146.5t-147.5 -47.5h-213q-194 0 -194 194v64z" />
    <glyph glyph-name="acute" unicode="&#xb4;" horiz-adv-x="772" 
d="M350 1475h299l-338 -226h-188z" />
    <glyph glyph-name="mu" unicode="&#xb5;" horiz-adv-x="1249" 
d="M164 -430v1495h196v-868h549v868h197v-1065h-197v188q-1 -39 -17.5 -73t-43 -59.5t-61.5 -40.5t-74 -15h-353v-430h-196z" />
    <glyph glyph-name="paragraph" unicode="&#xb6;" horiz-adv-x="1419" 
d="M602 -430v962h-151q-349 0 -349 349v204q0 349 349 349h784v-1864h-205v1659h-223v-1659h-205z" />
    <glyph glyph-name="periodcentered" unicode="&#xb7;" horiz-adv-x="627" 
d="M164 856h299v-299h-299v299z" />
    <glyph glyph-name="cedilla" unicode="&#xb8;" horiz-adv-x="1024" 
d="M283 -231l213 297h145l-111 -158q29 0 54.5 -11t44.5 -30t30 -44.5t11 -53.5v-156q0 -29 -11 -54t-30 -44t-44.5 -30t-54.5 -11h-264v139h264v156h-247z" />
    <glyph glyph-name="onesuperior" unicode="&#xb9;" horiz-adv-x="492" 
d="M348 1434v-758h-143v614h-123v144h266z" />
    <glyph glyph-name="ordmasculine" unicode="&#xba;" horiz-adv-x="926" 
d="M782 819q0 -32 -12 -60.5t-33.5 -49.5t-50 -33t-61.5 -12h-324q-33 0 -62 12t-50 33t-33.5 49.5t-12.5 60.5v457q0 32 12.5 61t33.5 50.5t50 34t62 12.5h324q33 0 61.5 -12.5t50 -34t33.5 -50.5t12 -61v-457zM295 1280v-465h336v465h-336zM143 485h639v-133h-639v133z
" />
    <glyph glyph-name="guillemotright" unicode="&#xbb;" horiz-adv-x="1130" 
d="M1028 438l-446 -438v205l249 264l-249 264v205l446 -438v-62zM590 438l-447 -438v205l250 264l-250 264v205l447 -438v-62z" />
    <glyph glyph-name="onequarter" unicode="&#xbc;" horiz-adv-x="1610" 
d="M174 0l950 1434h170l-960 -1434h-160zM389 1434v-758h-143v614h-123v144h266zM1219 758h151v-471h96v-140h-96v-147h-143v147h-373v127zM1227 287v280l-213 -280h213z" />
    <glyph glyph-name="onehalf" unicode="&#xbd;" horiz-adv-x="1743" 
d="M174 0l950 1434h170l-960 -1434h-160zM389 1434v-758h-143v614h-123v144h266zM1014 209q0 48 20 78.5t64 50.5l344 162v114h-285v-92h-143v133q0 24 10.5 43t28 32.5t38.5 20.5t42 7h333q22 0 43 -7.5t38 -21t27.5 -32.5t10.5 -42v-151q0 -48 -19.5 -78t-64.5 -51
l-344 -162v-70h299v93h143v-236h-585v209v0z" />
    <glyph glyph-name="threequarters" unicode="&#xbe;" horiz-adv-x="1898" 
d="M463 0l950 1434h170l-960 -1434h-160zM1507 758h152v-471h96v-140h-96v-147h-143v147h-373v127zM1516 287v280l-213 -280h213zM143 934h142v-60q0 -29 13 -43t42 -14h209q29 0 42 14t13 43v56q0 31 -13 44t-42 13h-193v143h189q26 2 37.5 15.5t11.5 42.5v47q0 29 -13 43
t-42 14h-189q-29 0 -42 -14t-13 -43v-59h-141v63q0 195 194 195h193q194 0 194 -195v-12q0 -54 -14.5 -92.5t-46.5 -63.5q35 -23 53 -63.5t18 -102.5v-35q0 -194 -194 -194h-213q-195 0 -195 194v64z" />
    <glyph glyph-name="questiondown" unicode="&#xbf;" horiz-adv-x="1147" 
d="M123 -49q0 42 8 75t25.5 59t44.5 47.5t65 39.5l264 127v172h205v-135q0 -42 -8.5 -75t-25.5 -59.5t-44 -47.5t-65 -39l-264 -127v-213h491v184h205v-184q0 -42 -16 -79.5t-44 -65.5t-65.5 -44t-79.5 -16h-491q-42 0 -79.5 16t-65.5 44t-44 65.5t-16 79.5v176zM776 705
h-299v299h299v-299z" />
    <glyph glyph-name="Agrave" unicode="&#xc0;" horiz-adv-x="1434" 
d="M819 1434l553 -1434h-205l-127 330h-647l-127 -330h-205l553 1434h205zM471 535h490l-244 632zM897 1618h-188l-338 225h299z" />
    <glyph glyph-name="Aacute" unicode="&#xc1;" horiz-adv-x="1434" 
d="M819 1434l553 -1434h-205l-127 330h-647l-127 -330h-205l553 1434h205zM471 535h490l-244 632zM762 1843h299l-338 -225h-188z" />
    <glyph glyph-name="Acircumflex" unicode="&#xc2;" horiz-adv-x="1434" 
d="M819 1434l553 -1434h-205l-127 330h-647l-127 -330h-205l553 1434h205zM471 535h490l-244 632zM1077 1618h-209l-151 135l-152 -135h-209l238 246h246z" />
    <glyph glyph-name="Atilde" unicode="&#xc3;" horiz-adv-x="1434" 
d="M819 1434l553 -1434h-205l-127 330h-647l-127 -330h-205l553 1434h205zM471 535h490l-244 632zM326 1620q0 53 18 99t50 80t76.5 53.5t98.5 19.5q56 0 95 -15.5t72 -34.5t64.5 -34.5t71.5 -15.5q44 0 70 30t29 70h137q-1 -53 -19 -99t-50 -80t-76.5 -53.5t-98.5 -19.5
q-56 0 -95 15.5t-72 34.5t-64.5 34.5t-71.5 15.5q-43 0 -69 -30t-29 -70h-137z" />
    <glyph glyph-name="Adieresis" unicode="&#xc4;" horiz-adv-x="1434" 
d="M819 1434l553 -1434h-205l-127 330h-647l-127 -330h-205l553 1434h205zM471 535h490l-244 632zM815 1835h217v-217h-217v217zM399 1835h217v-217h-217v217z" />
    <glyph glyph-name="Aring" unicode="&#xc5;" horiz-adv-x="1434" 
d="M440 1569q0 58 21.5 108.5t58.5 87.5t88 58.5t109 21.5t108.5 -21.5t87.5 -58.5t58.5 -87.5t21.5 -108.5q0 -79 -36.5 -142t-98.5 -98l514 -1329h-205l-127 330h-647l-127 -330h-205l512 1329q-60 35 -96.5 98t-36.5 142zM471 535h490l-244 632zM586 1569q0 -28 10 -52.5
t27.5 -43t41.5 -29t52 -10.5t52 10.5t41.5 29t27.5 43t10 52.5q0 27 -10 51.5t-27.5 43t-41.5 29.5t-52 11t-52 -11t-41.5 -29.5t-27.5 -43t-10 -51.5z" />
    <glyph glyph-name="AE" unicode="&#xc6;" horiz-adv-x="2355" 
d="M1188 330h-674l-256 -330h-256l1114 1434h1116v-205h-839v-410h716v-205h-716v-409h839v-205h-1044v330zM1188 535v661l-516 -661h516z" />
    <glyph glyph-name="Ccedilla" unicode="&#xc7;" horiz-adv-x="1516" 
d="M571 -231l166 231h-348q-42 0 -79.5 16t-65.5 44t-44 65.5t-16 79.5v1024q0 42 16 79.5t44 65t65.5 44t79.5 16.5h778q42 0 79.5 -16.5t65.5 -44t44 -65t16 -79.5v-185h-205v185h-778v-1024h778v184h205v-184q0 -42 -16 -79.5t-44 -65.5t-65.5 -44t-79.5 -16h-284
l-64 -92q29 0 54.5 -11t44.5 -30t29.5 -44.5t10.5 -53.5v-156q0 -29 -10.5 -54t-29.5 -44t-44.5 -30t-54.5 -11h-264v139h264v156h-248z" />
    <glyph glyph-name="Egrave" unicode="&#xc8;" horiz-adv-x="1352" 
d="M184 1434h1045v-205h-840v-410h717v-205h-717v-409h840v-205h-1045v1434zM897 1618h-188l-338 225h299z" />
    <glyph glyph-name="Eacute" unicode="&#xc9;" horiz-adv-x="1352" 
d="M184 1434h1045v-205h-840v-410h717v-205h-717v-409h840v-205h-1045v1434zM721 1843h299l-338 -225h-188z" />
    <glyph glyph-name="Ecircumflex" unicode="&#xca;" horiz-adv-x="1352" 
d="M184 1434h1045v-205h-840v-410h717v-205h-717v-409h840v-205h-1045v1434zM1077 1618h-209l-151 135l-152 -135h-209l238 246h246z" />
    <glyph glyph-name="Edieresis" unicode="&#xcb;" horiz-adv-x="1352" 
d="M184 1434h1045v-205h-840v-410h717v-205h-717v-409h840v-205h-1045v1434zM815 1835h217v-217h-217v217zM399 1835h217v-217h-217v217z" />
    <glyph glyph-name="Igrave" unicode="&#xcc;" horiz-adv-x="573" 
d="M389 1434v-1434h-205v1434h205zM469 1618h-188l-338 225h299z" />
    <glyph glyph-name="Iacute" unicode="&#xcd;" horiz-adv-x="573" 
d="M389 1434v-1434h-205v1434h205zM334 1843h299l-338 -225h-189z" />
    <glyph glyph-name="Icircumflex" unicode="&#xce;" horiz-adv-x="573" 
d="M389 1434v-1434h-205v1434h205zM647 1618h-209l-151 135l-152 -135h-209l238 246h246z" />
    <glyph glyph-name="Idieresis" unicode="&#xcf;" horiz-adv-x="573" 
d="M389 1434v-1434h-205v1434h205zM387 1835h217v-217h-217v217zM-29 1835h217v-217h-217v217z" />
    <glyph glyph-name="Eth" unicode="&#xd0;" horiz-adv-x="1599" 
d="M41 745h184v689h729q115 0 207.5 -35.5t158 -101t101 -158.5t35.5 -207v-430q0 -114 -35.5 -207t-101 -158.5t-158 -101t-207.5 -35.5h-729v580h-184v165zM954 205q143 0 220 77t77 220v430q0 70 -20 125t-58.5 93.5t-93.5 58.5t-125 20h-524v-484h356v-165h-356v-375
h524z" />
    <glyph glyph-name="Ntilde" unicode="&#xd1;" horiz-adv-x="1640" 
d="M389 0h-205v1434h205l862 -1112v1112h205v-1434h-205l-862 1112v-1112zM428 1620q0 53 18 99t50 80t77 53.5t99 19.5q55 0 94.5 -15.5t72.5 -34.5t64.5 -34.5t71.5 -15.5q43 0 69 30t29 70h137q-1 -53 -19 -99t-50 -80t-76 -53.5t-98 -19.5q-56 0 -95.5 15.5t-72.5 34.5
t-64 34.5t-71 15.5q-44 0 -70 -30t-29 -70h-137z" />
    <glyph glyph-name="Ograve" unicode="&#xd2;" horiz-adv-x="1597" 
d="M1413 205q0 -42 -16 -79.5t-44 -65.5t-65.5 -44t-79.5 -16h-819q-42 0 -79.5 16t-65.5 44t-44 65.5t-16 79.5v1024q0 42 16 79.5t44 65t65.5 44t79.5 16.5h819q42 0 79.5 -16.5t65.5 -44t44 -65t16 -79.5v-1024zM389 1229v-1024h819v1024h-819zM979 1618h-188l-338 225
h299z" />
    <glyph glyph-name="Oacute" unicode="&#xd3;" horiz-adv-x="1597" 
d="M1413 205q0 -42 -16 -79.5t-44 -65.5t-65.5 -44t-79.5 -16h-819q-42 0 -79.5 16t-65.5 44t-44 65.5t-16 79.5v1024q0 42 16 79.5t44 65t65.5 44t79.5 16.5h819q42 0 79.5 -16.5t65.5 -44t44 -65t16 -79.5v-1024zM389 1229v-1024h819v1024h-819zM844 1843h299l-338 -225
h-189z" />
    <glyph glyph-name="Ocircumflex" unicode="&#xd4;" horiz-adv-x="1597" 
d="M1413 205q0 -42 -16 -79.5t-44 -65.5t-65.5 -44t-79.5 -16h-819q-42 0 -79.5 16t-65.5 44t-44 65.5t-16 79.5v1024q0 42 16 79.5t44 65t65.5 44t79.5 16.5h819q42 0 79.5 -16.5t65.5 -44t44 -65t16 -79.5v-1024zM389 1229v-1024h819v1024h-819zM1159 1618h-209l-151 135
l-152 -135h-209l238 246h246z" />
    <glyph glyph-name="Otilde" unicode="&#xd5;" horiz-adv-x="1597" 
d="M1413 205q0 -42 -16 -79.5t-44 -65.5t-65.5 -44t-79.5 -16h-819q-42 0 -79.5 16t-65.5 44t-44 65.5t-16 79.5v1024q0 42 16 79.5t44 65t65.5 44t79.5 16.5h819q42 0 79.5 -16.5t65.5 -44t44 -65t16 -79.5v-1024zM389 1229v-1024h819v1024h-819zM408 1620q0 53 18 99
t50 80t76.5 53.5t98.5 19.5q56 0 95 -15.5t72 -34.5t64.5 -34.5t71.5 -15.5q44 0 70 30t29 70h137q-1 -53 -19 -99t-50 -80t-76.5 -53.5t-98.5 -19.5q-56 0 -95 15.5t-72 34.5t-64.5 34.5t-71.5 15.5q-43 0 -69 -30t-29 -70h-137z" />
    <glyph glyph-name="Odieresis" unicode="&#xd6;" horiz-adv-x="1597" 
d="M1413 205q0 -42 -16 -79.5t-44 -65.5t-65.5 -44t-79.5 -16h-819q-42 0 -79.5 16t-65.5 44t-44 65.5t-16 79.5v1024q0 42 16 79.5t44 65t65.5 44t79.5 16.5h819q42 0 79.5 -16.5t65.5 -44t44 -65t16 -79.5v-1024zM389 1229v-1024h819v1024h-819zM897 1835h217v-217h-217
v217zM481 1835h217v-217h-217v217z" />
    <glyph glyph-name="multiply" unicode="&#xd7;" horiz-adv-x="1348" 
d="M1225 991l-414 -413l414 -414l-138 -137l-413 413l-414 -413l-137 137l414 414l-414 413l137 137l414 -413l413 413z" />
    <glyph glyph-name="Oslash" unicode="&#xd8;" horiz-adv-x="1597" 
d="M1413 205q0 -42 -16 -79.5t-44 -65.5t-65.5 -44t-79.5 -16h-743l-119 -205h-162l125 219q-27 12 -50 31t-39.5 44t-26 54.5t-9.5 61.5v1024q0 42 16 79.5t44 65t65.5 44t79.5 16.5h735l117 204h172l-127 -221q28 -12 51 -31t40 -43.5t26.5 -53t9.5 -60.5v-1024z
M1176 1229l-592 -1024h624v1024h-32zM389 205h29l588 1024h-617v-1024z" />
    <glyph glyph-name="Ugrave" unicode="&#xd9;" horiz-adv-x="1597" 
d="M184 1434h205v-1229h819v1229h205v-1229q0 -42 -16 -79.5t-44 -65.5t-65.5 -44t-79.5 -16h-819q-42 0 -79.5 16t-65.5 44t-44 65.5t-16 79.5v1229zM958 1618h-188l-338 225h299z" />
    <glyph glyph-name="Uacute" unicode="&#xda;" horiz-adv-x="1597" 
d="M184 1434h205v-1229h819v1229h205v-1229q0 -42 -16 -79.5t-44 -65.5t-65.5 -44t-79.5 -16h-819q-42 0 -79.5 16t-65.5 44t-44 65.5t-16 79.5v1229zM864 1843h299l-338 -225h-188z" />
    <glyph glyph-name="Ucircumflex" unicode="&#xdb;" horiz-adv-x="1597" 
d="M184 1434h205v-1229h819v1229h205v-1229q0 -42 -16 -79.5t-44 -65.5t-65.5 -44t-79.5 -16h-819q-42 0 -79.5 16t-65.5 44t-44 65.5t-16 79.5v1229zM1159 1618h-209l-151 135l-152 -135h-209l238 246h246z" />
    <glyph glyph-name="Udieresis" unicode="&#xdc;" horiz-adv-x="1597" 
d="M184 1434h205v-1229h819v1229h205v-1229q0 -42 -16 -79.5t-44 -65.5t-65.5 -44t-79.5 -16h-819q-42 0 -79.5 16t-65.5 44t-44 65.5t-16 79.5v1229zM897 1835h217v-217h-217v217zM481 1835h217v-217h-217v217z" />
    <glyph glyph-name="Yacute" unicode="&#xdd;" horiz-adv-x="1393" 
d="M279 1434l417 -670l418 670h238l-553 -865v-569h-205v569l-553 865h238zM782 1843h299l-338 -225h-188z" />
    <glyph glyph-name="Thorn" unicode="&#xde;" horiz-adv-x="1419" 
d="M1317 676q0 -177 -86 -262.5t-262 -85.5h-580v-328h-205v1475h205v-287h580q348 0 348 -348v-164zM958 532q82 0 118 36.5t36 117.5v143q0 82 -36 118t-118 36h-569v-451h569z" />
    <glyph glyph-name="germandbls" unicode="&#xdf;" horiz-adv-x="1346" 
d="M1026 197v247h-283q-40 0 -76 15.5t-62.5 42t-42 62.5t-15.5 77v119q0 42 8.5 75t25.5 59t44.5 47.5t64.5 39.5l273 131v166h-582v-1278h-197v1278q0 41 15.5 76.5t42 62.5t62.5 42.5t77 15.5h582q41 0 76.5 -15.5t62 -42.5t42 -62.5t15.5 -76.5v-133q0 -42 -8 -75
t-25 -59.5t-44.5 -47.5t-65.5 -39l-273 -131v-152h283q41 0 77 -15.5t62.5 -42t42 -62.5t15.5 -77v-247q0 -41 -15.5 -77t-42 -62.5t-62.5 -42t-77 -15.5h-479v197h479z" />
    <glyph glyph-name="agrave" unicode="&#xe0;" horiz-adv-x="1229" 
d="M164 465q0 41 15.5 76.5t42 62.5t62.5 42.5t76 15.5h508v206h-643v197h643q41 0 77 -15.5t62.5 -42t42 -62.5t15.5 -77v-868h-197v180q-3 -37 -20 -70t-43.5 -57.5t-60.5 -38.5t-72 -14h-312q-40 0 -76 15.5t-62.5 42t-42 62.5t-15.5 77v268zM360 197h508v268h-508v-268z
M795 1249h-189l-338 226h299z" />
    <glyph glyph-name="aacute" unicode="&#xe1;" horiz-adv-x="1229" 
d="M164 465q0 41 15.5 76.5t42 62.5t62.5 42.5t76 15.5h508v206h-643v197h643q41 0 77 -15.5t62.5 -42t42 -62.5t15.5 -77v-868h-197v180q-3 -37 -20 -70t-43.5 -57.5t-60.5 -38.5t-72 -14h-312q-40 0 -76 15.5t-62.5 42t-42 62.5t-15.5 77v268zM360 197h508v268h-508v-268z
M680 1475h299l-338 -226h-188z" />
    <glyph glyph-name="acircumflex" unicode="&#xe2;" horiz-adv-x="1229" 
d="M164 465q0 41 15.5 76.5t42 62.5t62.5 42.5t76 15.5h508v206h-643v197h643q41 0 77 -15.5t62.5 -42t42 -62.5t15.5 -77v-868h-197v180q-3 -37 -20 -70t-43.5 -57.5t-60.5 -38.5t-72 -14h-312q-40 0 -76 15.5t-62.5 42t-42 62.5t-15.5 77v268zM360 197h508v268h-508v-268z
M1016 1249h-209l-152 135l-151 -135h-209l237 246h246z" />
    <glyph glyph-name="atilde" unicode="&#xe3;" horiz-adv-x="1229" 
d="M164 465q0 41 15.5 76.5t42 62.5t62.5 42.5t76 15.5h508v206h-643v197h643q41 0 77 -15.5t62.5 -42t42 -62.5t15.5 -77v-868h-197v180q-3 -37 -20 -70t-43.5 -57.5t-60.5 -38.5t-72 -14h-312q-40 0 -76 15.5t-62.5 42t-42 62.5t-15.5 77v268zM360 197h508v268h-508v-268z
M244 1251q0 53 18 99t50 80t76.5 53.5t98.5 19.5q56 0 95 -15.5t72 -34.5t65 -34.5t72 -15.5q43 0 69 30t29 70h137q-1 -53 -19 -99t-50 -80t-76.5 -53.5t-98.5 -19.5q-37 0 -66.5 7.5t-54.5 18.5t-46.5 24.5t-42.5 24.5t-43.5 18.5t-49.5 7.5q-43 0 -69 -30t-29 -71h-137z
" />
    <glyph glyph-name="adieresis" unicode="&#xe4;" horiz-adv-x="1229" 
d="M164 465q0 41 15.5 76.5t42 62.5t62.5 42.5t76 15.5h508v206h-643v197h643q41 0 77 -15.5t62.5 -42t42 -62.5t15.5 -77v-868h-197v180q-3 -37 -20 -70t-43.5 -57.5t-60.5 -38.5t-72 -14h-312q-40 0 -76 15.5t-62.5 42t-42 62.5t-15.5 77v268zM360 197h508v268h-508v-268z
M733 1466h217v-217h-217v217zM317 1466h218v-217h-218v217z" />
    <glyph glyph-name="aring" unicode="&#xe5;" horiz-adv-x="1229" 
d="M164 465q0 41 15.5 76.5t42 62.5t62.5 42.5t76 15.5h508v206h-643v197h643q41 0 77 -15.5t62.5 -42t42 -62.5t15.5 -77v-868h-197v180q-3 -37 -20 -70t-43.5 -57.5t-60.5 -38.5t-72 -14h-312q-40 0 -76 15.5t-62.5 42t-42 62.5t-15.5 77v268zM358 1475q0 58 21.5 108.5
t58.5 87.5t88 58.5t109 21.5q59 0 109 -21.5t87.5 -58.5t58.5 -87.5t21 -108.5t-21 -109t-58.5 -88t-87.5 -58.5t-109 -21.5q-58 0 -109 21.5t-88 58.5t-58.5 88t-21.5 109zM360 197h508v268h-508v-268zM504 1475q0 -28 10 -52.5t27.5 -43t41.5 -29.5t52 -11t52 11
t41.5 29.5t27.5 43t10 52.5q0 27 -10 51.5t-27.5 43t-41.5 29.5t-52 11t-52 -11t-41.5 -29.5t-27.5 -43t-10 -51.5z" />
    <glyph glyph-name="ae" unicode="&#xe6;" horiz-adv-x="1933" 
d="M868 465h-508v-268h508v268zM1065 868v-239h508v239h-508zM967 928q9 30 27 55t42 43.5t54 28.5t63 10h420q41 0 76.5 -15.5t62 -42t42 -62.5t15.5 -77v-436h-704v-235h704v-197h-704q-40 0 -75.5 15t-62 40.5t-42 59.5t-17.5 73q-1 -39 -17.5 -73t-43 -59.5t-61.5 -40.5
t-74 -15h-312q-40 0 -76 15.5t-62.5 42t-42 62.5t-15.5 77v268q0 41 15.5 76.5t42 62.5t62.5 42.5t76 15.5h508v206h-643v197h555q33 0 63 -10t54.5 -28.5t42.5 -43.5t27 -55z" />
    <glyph glyph-name="ccedilla" unicode="&#xe7;" horiz-adv-x="1229" 
d="M408 -231l165 231h-213q-40 0 -76 15.5t-62.5 42t-42 62.5t-15.5 77v671q0 41 15.5 77t42 62.5t62.5 42t76 15.5h508q41 0 77 -15.5t62.5 -42t42 -62.5t15.5 -77v-180h-197v180h-508v-671h508v180h197v-180q0 -41 -15.5 -77t-42 -62.5t-62.5 -42t-77 -15.5h-149l-64 -92
q29 0 54.5 -11t44.5 -30t30 -44.5t11 -53.5v-156q0 -29 -11 -54t-30 -44t-44.5 -30t-54.5 -11h-264v139h264v156h-247z" />
    <glyph glyph-name="egrave" unicode="&#xe8;" horiz-adv-x="1229" 
d="M1065 432h-705v-235h705v-197h-705q-40 0 -76 15.5t-62.5 42t-42 62.5t-15.5 77v671q0 41 15.5 77t42 62.5t62.5 42t76 15.5h508q41 0 77 -15.5t62.5 -42t42 -62.5t15.5 -77v-436zM360 868v-239h508v239h-508zM795 1249h-189l-338 226h299z" />
    <glyph glyph-name="eacute" unicode="&#xe9;" horiz-adv-x="1229" 
d="M1065 432h-705v-235h705v-197h-705q-40 0 -76 15.5t-62.5 42t-42 62.5t-15.5 77v671q0 41 15.5 77t42 62.5t62.5 42t76 15.5h508q41 0 77 -15.5t62.5 -42t42 -62.5t15.5 -77v-436zM360 868v-239h508v239h-508zM659 1475h299l-337 -226h-189z" />
    <glyph glyph-name="ecircumflex" unicode="&#xea;" horiz-adv-x="1229" 
d="M1065 432h-705v-235h705v-197h-705q-40 0 -76 15.5t-62.5 42t-42 62.5t-15.5 77v671q0 41 15.5 77t42 62.5t62.5 42t76 15.5h508q41 0 77 -15.5t62.5 -42t42 -62.5t15.5 -77v-436zM360 868v-239h508v239h-508zM975 1249h-209l-152 135l-151 -135h-209l238 246h245z" />
    <glyph glyph-name="edieresis" unicode="&#xeb;" horiz-adv-x="1229" 
d="M1065 432h-705v-235h705v-197h-705q-40 0 -76 15.5t-62.5 42t-42 62.5t-15.5 77v671q0 41 15.5 77t42 62.5t62.5 42t76 15.5h508q41 0 77 -15.5t62.5 -42t42 -62.5t15.5 -77v-436zM360 868v-239h508v239h-508zM713 1466h217v-217h-217v217zM297 1466h217v-217h-217v217z
" />
    <glyph glyph-name="igrave" unicode="&#xec;" horiz-adv-x="545" 
d="M371 1065v-1065h-197v1065h197zM455 1249h-189l-338 226h299z" />
    <glyph glyph-name="iacute" unicode="&#xed;" horiz-adv-x="545" 
d="M371 1065v-1065h-197v1065h197zM319 1475h299l-337 -226h-189z" />
    <glyph glyph-name="icircumflex" unicode="&#xee;" horiz-adv-x="545" 
d="M371 1065v-1065h-197v1065h197zM633 1249h-209l-152 135l-151 -135h-209l238 246h245z" />
    <glyph glyph-name="idieresis" unicode="&#xef;" horiz-adv-x="545" 
d="M371 1065v-1065h-197v1065h197zM373 1466h217v-217h-217v217zM-43 1466h217v-217h-217v217z" />
    <glyph glyph-name="eth" unicode="&#xf0;" horiz-adv-x="1249" 
d="M1085 197q0 -41 -15.5 -77t-42 -62.5t-62 -42t-76.5 -15.5h-529q-40 0 -76 15.5t-62.5 42t-42 62.5t-15.5 77v671q0 41 15.5 77t42 62.5t62.5 42t76 15.5h486q-17 43 -40 83t-52 75l-170 -101l-62 111l144 84q-39 34 -81.5 60.5t-88.5 47.5l65 140q143 -53 258 -156
l174 102l62 -108l-148 -88q78 -94 124 -208t54 -239v-671zM889 197v671h-529v-671h529z" />
    <glyph glyph-name="ntilde" unicode="&#xf1;" 
d="M1106 0h-197v868h-549v-868h-196v1065h196v-188q2 39 18 73.5t42.5 60t61.5 40t75 14.5h352q41 0 77 -15.5t62.5 -42t42 -62.5t15.5 -77v-868zM244 1251q0 53 18 99t50 80t76.5 53.5t98.5 19.5q56 0 95 -15.5t72 -34.5t65 -34.5t72 -15.5q43 0 69 30t29 70h137
q-1 -53 -19 -99t-50 -80t-76.5 -53.5t-98.5 -19.5q-37 0 -66.5 7.5t-54.5 18.5t-46.5 24.5t-42.5 24.5t-43.5 18.5t-49.5 7.5q-43 0 -69 -30t-29 -71h-137z" />
    <glyph glyph-name="ograve" unicode="&#xf2;" horiz-adv-x="1249" 
d="M1085 197q0 -41 -15.5 -77t-42 -62.5t-62 -42t-76.5 -15.5h-529q-40 0 -76 15.5t-62.5 42t-42 62.5t-15.5 77v671q0 41 15.5 77t42 62.5t62.5 42t76 15.5h529q41 0 76.5 -15.5t62 -42t42 -62.5t15.5 -77v-671zM360 868v-671h529v671h-529zM805 1249h-189l-337 226h299z
" />
    <glyph glyph-name="oacute" unicode="&#xf3;" horiz-adv-x="1249" 
d="M1085 197q0 -41 -15.5 -77t-42 -62.5t-62 -42t-76.5 -15.5h-529q-40 0 -76 15.5t-62.5 42t-42 62.5t-15.5 77v671q0 41 15.5 77t42 62.5t62.5 42t76 15.5h529q41 0 76.5 -15.5t62 -42t42 -62.5t15.5 -77v-671zM360 868v-671h529v671h-529zM670 1475h299l-338 -226h-189z
" />
    <glyph glyph-name="ocircumflex" unicode="&#xf4;" horiz-adv-x="1249" 
d="M1085 197q0 -41 -15.5 -77t-42 -62.5t-62 -42t-76.5 -15.5h-529q-40 0 -76 15.5t-62.5 42t-42 62.5t-15.5 77v671q0 41 15.5 77t42 62.5t62.5 42t76 15.5h529q41 0 76.5 -15.5t62 -42t42 -62.5t15.5 -77v-671zM360 868v-671h529v671h-529zM985 1249h-209l-151 135
l-152 -135h-209l238 246h246z" />
    <glyph glyph-name="otilde" unicode="&#xf5;" horiz-adv-x="1249" 
d="M1085 197q0 -41 -15.5 -77t-42 -62.5t-62 -42t-76.5 -15.5h-529q-40 0 -76 15.5t-62.5 42t-42 62.5t-15.5 77v671q0 41 15.5 77t42 62.5t62.5 42t76 15.5h529q41 0 76.5 -15.5t62 -42t42 -62.5t15.5 -77v-671zM360 868v-671h529v671h-529zM233 1251q0 53 18 99t50.5 80
t77 53.5t98.5 19.5q56 0 95 -15.5t72 -34.5t64.5 -34.5t71.5 -15.5q44 0 69.5 30t29.5 70h137q-1 -53 -19 -99t-50 -80t-76.5 -53.5t-98.5 -19.5q-37 0 -66.5 7.5t-54.5 18.5t-46.5 24.5t-43 24.5t-43.5 18.5t-49 7.5q-43 0 -69 -30t-29 -71h-138z" />
    <glyph glyph-name="odieresis" unicode="&#xf6;" horiz-adv-x="1249" 
d="M1085 197q0 -41 -15.5 -77t-42 -62.5t-62 -42t-76.5 -15.5h-529q-40 0 -76 15.5t-62.5 42t-42 62.5t-15.5 77v671q0 41 15.5 77t42 62.5t62.5 42t76 15.5h529q41 0 76.5 -15.5t62 -42t42 -62.5t15.5 -77v-671zM360 868v-671h529v671h-529zM723 1466h217v-217h-217v217z
M307 1466h217v-217h-217v217z" />
    <glyph glyph-name="divide" unicode="&#xf7;" horiz-adv-x="1446" 
d="M164 676h1118v-197h-1118v197zM588 1122h270v-270h-270v270zM588 303h270v-270h-270v270z" />
    <glyph glyph-name="oslash" unicode="&#xf8;" horiz-adv-x="1249" 
d="M1085 197q0 -41 -15.5 -77t-42 -62.5t-62 -42t-76.5 -15.5h-469l-109 -205h-147l117 221q-53 23 -85 72t-32 109v671q0 41 15.5 77t42 62.5t62.5 42t76 15.5h471l97 184h157l-108 -205q48 -24 78 -71.5t30 -104.5v-671zM360 197h15l352 671h-367v-671zM883 868l-359 -671
h365v671h-6z" />
    <glyph glyph-name="ugrave" unicode="&#xf9;" 
d="M164 1065h196v-868h549v868h197v-1065h-197v180q-3 -37 -20 -70t-43.5 -57.5t-60.5 -38.5t-72 -14h-353q-40 0 -76 15.5t-62.5 42t-42 62.5t-15.5 77v868zM784 1249h-188l-338 226h299z" />
    <glyph glyph-name="uacute" unicode="&#xfa;" 
d="M164 1065h196v-868h549v868h197v-1065h-197v180q-3 -37 -20 -70t-43.5 -57.5t-60.5 -38.5t-72 -14h-353q-40 0 -76 15.5t-62.5 42t-42 62.5t-15.5 77v868zM690 1475h299l-338 -226h-188z" />
    <glyph glyph-name="ucircumflex" unicode="&#xfb;" 
d="M164 1065h196v-868h549v868h197v-1065h-197v180q-3 -37 -20 -70t-43.5 -57.5t-60.5 -38.5t-72 -14h-353q-40 0 -76 15.5t-62.5 42t-42 62.5t-15.5 77v868zM985 1249h-209l-151 135l-152 -135h-209l238 246h246z" />
    <glyph glyph-name="udieresis" unicode="&#xfc;" 
d="M164 1065h196v-868h549v868h197v-1065h-197v180q-3 -37 -20 -70t-43.5 -57.5t-60.5 -38.5t-72 -14h-353q-40 0 -76 15.5t-62.5 42t-42 62.5t-15.5 77v868zM307 1466h217v-217h-217v217zM723 1466h217v-217h-217v217z" />
    <glyph glyph-name="yacute" unicode="&#xfd;" horiz-adv-x="1118" 
d="M236 -430l223 526l-418 969h207l311 -733l311 733h207l-645 -1495h-196zM645 1475h299l-338 -226h-188z" />
    <glyph glyph-name="thorn" unicode="&#xfe;" 
d="M1106 197q0 -41 -15.5 -77t-42 -62.5t-62.5 -42t-77 -15.5h-549v-430h-196v1905h196v-590q3 38 20 70.5t43 57t60.5 38.5t73.5 14h352q41 0 77 -15.5t62.5 -42t42 -62.5t15.5 -77v-671zM909 197v671h-549v-671h549z" />
    <glyph glyph-name="ydieresis" unicode="&#xff;" horiz-adv-x="1118" 
d="M236 -430l223 526l-418 969h207l311 -733l311 733h207l-645 -1495h-196zM657 1466h217v-217h-217v217zM242 1466h217v-217h-217v217z" />
    <glyph glyph-name="hbar" unicode="&#x127;" 
d="M0 1329h164v146h196v-146h420v-125h-420v-319q3 38 20 70.5t43 57t60.5 38.5t73.5 14h352q41 0 77 -15.5t62.5 -42t42 -62.5t15.5 -77v-868h-197v868h-549v-868h-196v1204h-164v125z" />
    <glyph glyph-name="Itilde" unicode="&#x128;" horiz-adv-x="573" 
d="M389 1434v-1434h-205v1434h205zM-104 1620q0 53 18 99t50 80t76.5 53.5t98.5 19.5q56 0 95 -15.5t72 -34.5t64.5 -34.5t71.5 -15.5q44 0 70 30t29 70h137q-1 -53 -19 -99t-50 -80t-76.5 -53.5t-98.5 -19.5q-56 0 -95 15.5t-72 34.5t-64.5 34.5t-71.5 15.5q-43 0 -69 -30
t-29 -70h-137z" />
    <glyph glyph-name="itilde" unicode="&#x129;" horiz-adv-x="545" 
d="M371 1065v-1065h-197v1065h197zM-119 1251q0 53 18 99t50.5 80t77 53.5t98.5 19.5q55 0 94.5 -15.5t72.5 -34.5t64.5 -34.5t71.5 -15.5q43 0 69 30t29 70h138q-1 -53 -19 -99t-50 -80t-76.5 -53.5t-98.5 -19.5q-56 0 -95.5 16t-72.5 34.5t-64 34.5t-71 16
q-44 0 -69.5 -30t-29.5 -71h-137z" />
    <glyph glyph-name="dotlessi" unicode="&#x131;" horiz-adv-x="545" 
d="M371 1065v-1065h-197v1065h197z" />
    <glyph glyph-name="IJ" unicode="&#x132;" horiz-adv-x="1890" 
d="M389 1434v-1434h-205v1434h205zM717 451h205v-246h579v1229h205v-1229q0 -42 -16 -79.5t-44 -65.5t-65.5 -44t-79.5 -16h-579q-42 0 -79.5 16t-65.5 44t-44 65.5t-16 79.5v246z" />
    <glyph glyph-name="ij" unicode="&#x133;" horiz-adv-x="1090" 
d="M371 1065v-1065h-197v1065h197zM164 1475h217v-205h-217v205zM719 -233v1298h196v-1298q0 -41 -15.5 -77t-42 -62.5t-62 -42t-76.5 -15.5h-154v197h154zM709 1475h217v-205h-217v205z" />
    <glyph glyph-name="Jcircumflex" unicode="&#x134;" horiz-adv-x="1317" 
d="M143 451h205v-246h580v1229h205v-1229q0 -42 -16.5 -79.5t-44 -65.5t-65 -44t-79.5 -16h-580q-42 0 -79.5 16t-65 44t-44 65.5t-16.5 79.5v246zM1389 1618h-209l-152 135l-151 -135h-209l237 246h246z" />
    <glyph glyph-name="jcircumflex" unicode="&#x135;" horiz-adv-x="545" 
d="M174 -233v1298h197v-1298q0 -41 -15.5 -77t-42 -62.5t-62.5 -42t-77 -15.5h-154v197h154zM633 1249h-209l-152 135l-151 -135h-209l238 246h245z" />
    <glyph glyph-name="kcommaaccent" unicode="&#x137;" horiz-adv-x="1124" 
d="M868 0l-508 455v-455h-196v1475h196v-830l467 420h277l-572 -514l613 -551h-277zM557 -809h-145l147 305h-147v299h299v-299z" />
    <glyph glyph-name="kgreenlandic" unicode="&#x138;" horiz-adv-x="1124" 
d="M868 0l-508 455v-455h-196v1063h196v-418l467 420h277l-572 -514l613 -551h-277z" />
    <glyph glyph-name="Ldotaccent" unicode="&#x13f;" horiz-adv-x="1188" 
d="M389 1434v-1229h737v-205h-942v1434h205zM637 920h258v-258h-258v258z" />
    <glyph glyph-name="ldot" unicode="&#x140;" horiz-adv-x="977" 
d="M360 1475v-1475h-196v1475h196zM596 920h258v-258h-258v258z" />
    <glyph glyph-name="Lslash" unicode="&#x141;" horiz-adv-x="1229" 
d="M430 1434v-633l356 123v-170l-356 -123v-426h737v-205h-942v561l-184 -63v170l184 63v703h205z" />
    <glyph glyph-name="lslash" unicode="&#x142;" horiz-adv-x="680" 
d="M438 1475v-652l201 86v-176l-201 -86v-647h-196v563l-201 -86v176l201 86v736h196z" />
    <glyph glyph-name="Nacute" unicode="&#x143;" horiz-adv-x="1640" 
d="M389 0h-205v1434h205l862 -1112v1112h205v-1434h-205l-862 1112v-1112zM887 1843h299l-338 -225h-189z" />
    <glyph glyph-name="nacute" unicode="&#x144;" 
d="M1106 0h-197v868h-549v-868h-196v1065h196v-188q2 39 18 73.5t42.5 60t61.5 40t75 14.5h352q41 0 77 -15.5t62.5 -42t42 -62.5t15.5 -77v-868zM680 1475h299l-338 -226h-188z" />
    <glyph glyph-name="OE" unicode="&#x152;" horiz-adv-x="2273" 
d="M184 1229q0 42 16 79.5t44 65t65.5 44t79.5 16.5h1761v-205h-839v-410h717v-205h-717v-409h839v-205h-1761q-42 0 -79.5 16t-65.5 44t-44 65.5t-16 79.5v1024zM389 1229v-1024h717v1024h-717z" />
    <glyph glyph-name="oe" unicode="&#x153;" horiz-adv-x="1954" 
d="M164 868q0 41 15.5 77t42 62.5t62.5 42t76 15.5h447q60 0 108.5 -33t71.5 -86q23 53 70.5 86t109.5 33h426q41 0 77 -15.5t62.5 -42t42 -62.5t15.5 -77v-436h-705v-235h705v-197h-623q-62 0 -109.5 32t-70.5 85q-23 -53 -71.5 -85t-108.5 -32h-447q-40 0 -76 15.5
t-62.5 42t-42 62.5t-15.5 77v671zM360 868v-671h529v671h-529zM1085 868v-239h508v239h-508z" />
    <glyph glyph-name="Racute" unicode="&#x154;" horiz-adv-x="1475" 
d="M1317 922q0 -300 -256 -342l270 -580h-227l-266 573h-449v-573h-205v1434h785q348 0 348 -349v-163zM389 778h569q82 0 118 36t36 118v143q0 82 -36 118t-118 36h-569v-451zM782 1843h299l-338 -225h-188z" />
    <glyph glyph-name="Rcommaaccent" unicode="&#x156;" horiz-adv-x="1475" 
d="M1317 922q0 -300 -256 -342l270 -580h-227l-266 573h-449v-573h-205v1434h785q348 0 348 -349v-163zM389 778h569q82 0 118 36t36 118v143q0 82 -36 118t-118 36h-569v-451zM733 -809h-145l147 305h-147v299h299v-299z" />
    <glyph glyph-name="rcommaaccent" unicode="&#x157;" horiz-adv-x="1044" 
d="M360 868v-868h-196v1065h196v-188q2 39 18 73.5t42.5 60t61.5 40t75 14.5h209q41 0 76.5 -15.5t62.5 -42t42.5 -62.5t15.5 -77v-180h-197v180h-406zM309 -809h-145l147 305h-147v299h299v-299z" />
    <glyph glyph-name="Rcaron" unicode="&#x158;" horiz-adv-x="1475" 
d="M1317 922q0 -300 -256 -342l270 -580h-227l-266 573h-449v-573h-205v1434h785q348 0 348 -349v-163zM389 778h569q82 0 118 36t36 118v143q0 82 -36 118t-118 36h-569v-451zM377 1864h209l151 -138l152 138h209l-238 -246h-246z" />
    <glyph glyph-name="rcaron" unicode="&#x159;" horiz-adv-x="1044" 
d="M360 868v-868h-196v1065h196v-188q2 39 18 73.5t42.5 60t61.5 40t75 14.5h209q41 0 76.5 -15.5t62.5 -42t42.5 -62.5t15.5 -77v-180h-197v180h-406zM203 1495h209l151 -137l152 137h209l-238 -246h-246z" />
    <glyph glyph-name="Scaron" unicode="&#x160;" horiz-adv-x="1475" 
d="M389 614q-42 0 -79.5 16.5t-65.5 44t-44 65t-16 79.5v410q0 42 16 79.5t44 65t65.5 44t79.5 16.5h696q42 0 79.5 -16.5t65.5 -44t44 -65t16 -79.5v-185h-205v185h-696v-410h696q42 0 79.5 -16t65.5 -44t44 -65.5t16 -79.5v-409q0 -42 -16 -79.5t-44 -65.5t-65.5 -44
t-79.5 -16h-716q-42 0 -79.5 16t-65.5 44t-44 65.5t-16 79.5v184h205v-184h716v409h-696zM377 1864h209l151 -138l152 138h209l-238 -246h-246z" />
    <glyph glyph-name="scaron" unicode="&#x161;" horiz-adv-x="1147" 
d="M807 197v247h-467q-41 0 -77 15.5t-62.5 42t-42 62.5t-15.5 77v227q0 41 15.5 77t42 62.5t62.5 42t77 15.5h623v-197h-623v-227h467q41 0 76.5 -15.5t62.5 -42t42.5 -62.5t15.5 -77v-247q0 -41 -15.5 -77t-42.5 -62.5t-62.5 -42t-76.5 -15.5h-664v197h664zM213 1495h209
l151 -137l152 137h209l-238 -246h-245z" />
    <glyph glyph-name="Ydieresis" unicode="&#x178;" horiz-adv-x="1393" 
d="M279 1434l417 -670l418 670h238l-553 -865v-569h-205v569l-553 865h238zM795 1835h217v-217h-217v217zM379 1835h217v-217h-217v217z" />
    <glyph glyph-name="Zcaron" unicode="&#x17d;" horiz-adv-x="1401" 
d="M152 1434h1126v-62l-813 -1167h813v-205h-1155v61l813 1168h-784v205zM340 1864h209l151 -138l152 138h209l-238 -246h-245z" />
    <glyph glyph-name="zcaron" unicode="&#x17e;" horiz-adv-x="1147" 
d="M143 1065h881v-53l-567 -815h567v-197h-901v53l567 815h-547v197zM213 1495h209l151 -137l152 137h209l-238 -246h-245z" />
    <glyph glyph-name="florin" unicode="&#x192;" horiz-adv-x="1004" 
d="M662 1278l-60 -336h289l-35 -197h-289l-174 -978q-7 -41 -28.5 -77t-52.5 -62.5t-69 -42t-79 -15.5h-266l32 197h267l174 978h-240l35 197h240l59 336q7 41 28.5 76.5t52.5 62.5t69.5 42.5t78.5 15.5h289l-33 -197h-288z" />
    <glyph glyph-name="circumflex" unicode="&#x2c6;" horiz-adv-x="967" 
d="M844 1249h-209l-152 135l-151 -135h-209l237 246h246z" />
    <glyph glyph-name="caron" unicode="&#x2c7;" horiz-adv-x="967" 
d="M123 1495h209l151 -137l152 137h209l-238 -246h-246z" />
    <glyph glyph-name="breve" unicode="&#x2d8;" horiz-adv-x="963" 
d="M840 1561q-7 -68 -37.5 -126.5t-78.5 -102t-110.5 -68.5t-132.5 -25q-69 0 -130.5 25t-109.5 68.5t-79 102t-39 126.5h166q7 -34 24 -63t42.5 -50t57.5 -33t68 -12q35 0 67 12t57.5 33t43.5 50t25 63h166z" />
    <glyph glyph-name="dotaccent" unicode="&#x2d9;" horiz-adv-x="504" 
d="M123 1507h258v-258h-258v258z" />
    <glyph glyph-name="ring" unicode="&#x2da;" horiz-adv-x="1024" 
d="M205 1475q0 58 21.5 108.5t58.5 87.5t87.5 58.5t108.5 21.5q59 0 109.5 -21.5t87.5 -58.5t58.5 -87.5t21.5 -108.5t-21.5 -109t-58.5 -88t-87.5 -58.5t-109.5 -21.5q-58 0 -108.5 21.5t-87.5 58.5t-58.5 88t-21.5 109zM350 1475q0 -28 10 -52.5t28 -43t42 -29.5t51 -11
q28 0 52 11t41.5 29.5t27.5 43t10 52.5q0 27 -10 51.5t-27.5 43t-41.5 29.5t-52 11q-27 0 -51 -11t-42 -29.5t-28 -43t-10 -51.5z" />
    <glyph glyph-name="ogonek" unicode="&#x2db;" horiz-adv-x="672" 
d="M379 0q-24 -41 -42 -84q-16 -37 -29 -81.5t-13 -86.5q0 -57 24.5 -91t81.5 -34q31 0 58 8t47 19q24 12 43 28v-141q-24 -20 -55 -36q-26 -14 -63 -25t-83 -11t-87 15.5t-71.5 45t-48.5 72.5t-18 99q0 63 17 117.5t38 96.5q25 48 55 89h146z" />
    <glyph glyph-name="tilde" unicode="&#x2dc;" horiz-adv-x="1028" 
d="M123 1251q0 53 18 99t50 80t77 53.5t99 19.5q55 0 94.5 -15.5t72.5 -34.5t64.5 -34.5t71.5 -15.5q43 0 69 30t29 70h137q-1 -53 -19 -99t-50 -80t-76 -53.5t-98 -19.5q-56 0 -95.5 16t-72.5 34.5t-64.5 34.5t-71.5 16q-43 0 -69 -30t-29 -71h-137z" />
    <glyph glyph-name="hungarumlaut" unicode="&#x2dd;" horiz-adv-x="1208" 
d="M350 1475h299l-338 -226h-188zM786 1475h299l-337 -226h-189z" />
    <glyph glyph-name="dotaccentcmb" unicode="&#x307;" horiz-adv-x="504" 
d="M123 1507h258v-258h-258v258z" />
    <glyph glyph-name="endash" unicode="&#x2013;" horiz-adv-x="1642" 
d="M184 676h1274v-197h-1274v197z" />
    <glyph glyph-name="emdash" unicode="&#x2014;" horiz-adv-x="2048" 
d="M184 676h1680v-197h-1680v197z" />
    <glyph glyph-name="quoteleft" unicode="&#x2018;" horiz-adv-x="627" 
d="M317 1434h146l-148 -306h148v-299h-299v299z" />
    <glyph glyph-name="quoteright" unicode="&#x2019;" horiz-adv-x="586" 
d="M309 829h-145l147 306h-147v299h299v-299z" />
    <glyph glyph-name="quotesinglbase" unicode="&#x201a;" horiz-adv-x="627" 
d="M309 -305h-145l147 305h-147v299h299v-299z" />
    <glyph glyph-name="quotedblleft" unicode="&#x201c;" horiz-adv-x="1028" 
d="M719 1434h145l-147 -306h147v-299h-299v299zM317 1434h146l-148 -306h148v-299h-299v299z" />
    <glyph glyph-name="quotedblright" unicode="&#x201d;" horiz-adv-x="1028" 
d="M309 829h-145l147 306h-147v299h299v-299zM711 829h-146l148 306h-148v299h299v-299z" />
    <glyph glyph-name="quotedblbase" unicode="&#x201e;" horiz-adv-x="1028" 
d="M309 -305h-145l147 305h-147v299h299v-299zM711 -305h-146l148 305h-148v299h299v-299z" />
    <glyph glyph-name="dagger" unicode="&#x2020;" horiz-adv-x="1241" 
d="M719 1434v-410h399v-197h-399v-1257h-197v1257h-399v197h399v410h197z" />
    <glyph glyph-name="daggerdbl" unicode="&#x2021;" horiz-adv-x="1241" 
d="M719 1434v-410h399v-197h-399v-651h399v-196h-399v-410h-197v410h-399v196h399v651h-399v197h399v410h197z" />
    <glyph glyph-name="bullet" unicode="&#x2022;" horiz-adv-x="958" 
d="M123 709q0 74 28 138.5t76.5 113t113.5 76.5t138 28q74 0 139 -28t113.5 -76.5t76.5 -113t28 -138.5t-28 -139t-76.5 -113.5t-113.5 -76.5t-139 -28q-73 0 -138 28t-113.5 76.5t-76.5 113.5t-28 139z" />
    <glyph glyph-name="ellipsis" unicode="&#x2026;" horiz-adv-x="1634" 
d="M164 299h299v-299h-299v299zM668 299h299v-299h-299v299zM1171 299h299v-299h-299v299z" />
    <glyph glyph-name="guilsinglleft" unicode="&#x2039;" horiz-adv-x="692" 
d="M102 500l447 438v-205l-250 -264l250 -264v-205l-447 438v62z" />
    <glyph glyph-name="guilsinglright" unicode="&#x203a;" horiz-adv-x="692" 
d="M590 438l-447 -438v205l250 264l-250 264v205l447 -438v-62z" />
    <glyph glyph-name="fraction" unicode="&#x2044;" horiz-adv-x="1161" 
d="M20 0l951 1434h170l-961 -1434h-160z" />
    <glyph glyph-name="Euro" unicode="&#x20ac;" horiz-adv-x="1608" 
d="M61 950h215v279q0 42 16.5 79.5t44 65t65 44t79.5 16.5h779q42 0 79 -16.5t65 -44t44 -65t16 -79.5v-144h-204v144h-779v-279h711l-119 -166h-592v-135h490l-119 -166h-371v-278h779v143h204v-143q0 -42 -16 -79.5t-44 -65.5t-65 -44t-79 -16h-779q-42 0 -79.5 16t-65 44
t-44 65.5t-16.5 79.5v278h-215v166h215v135h-215v166z" />
    <glyph glyph-name="trademark" unicode="&#x2122;" horiz-adv-x="1839" 
d="M1221 745l-236 414v-414h-143v689h145l260 -463l262 463h146v-689h-144v414l-235 -414h-55zM102 1434h615v-134h-236v-555h-143v555h-236v134z" />
    <glyph glyph-name="minus" unicode="&#x2212;" horiz-adv-x="1446" 
d="M164 676h1118v-197h-1118v197z" />
    <glyph glyph-name="dotlessj" unicode="&#xf6be;" horiz-adv-x="545" 
d="M174 -233v1298h197v-1298q0 -41 -15.5 -77t-42 -62.5t-62.5 -42t-77 -15.5h-154v197h154z" />
    <glyph glyph-name="commaaccent" unicode="&#xf6c3;" horiz-adv-x="545" 
d="M268 -809h-145l147 305h-147v299h299v-299z" />
    <glyph glyph-name="quotedbl" unicode="&#x22;" horiz-adv-x="1004" 
d="M365 762h-136l-65 455v217h266v-217zM774 762h-135l-66 455v217h267v-217z" />
    <glyph glyph-name="exclam" unicode="!" horiz-adv-x="586" 
d="M236 532l-82 902h278l-82 -902h-114zM143 299h299v-299h-299v299z" />
    </font>
</defs>
</svg>
