<svg width="16.801" height="29.081" viewBox="0 0 16.801 29.081" xmlns="http://www.w3.org/2000/svg"><g id="svgGroup" stroke-linecap="round" fill-rule="evenodd" font-size="9pt" stroke="#000" stroke-width="0.25mm" fill="none" style="stroke:#000;stroke-width:0.25mm;fill:none"><path d="M 0 8.32 L 0 21.2 A 9.823 9.823 0 0 0 0.188 23.174 Q 0.455 24.473 1.098 25.495 A 6.23 6.23 0 0 0 1.14 25.56 Q 2.28 27.32 4.2 28.2 A 9.772 9.772 0 0 0 7.584 29.049 A 11.675 11.675 0 0 0 8.44 29.08 Q 10.96 29.08 12.84 28.14 Q 14.72 27.2 15.76 25.42 A 7.508 7.508 0 0 0 16.672 22.834 A 9.997 9.997 0 0 0 16.8 21.2 L 16.8 8.36 A 11.275 11.275 0 0 0 16.54 5.866 Q 16.129 4.053 15.069 2.743 A 6.981 6.981 0 0 0 14.6 2.22 A 7.23 7.23 0 0 0 11.101 0.293 Q 9.979 0.019 8.657 0.001 A 13.639 13.639 0 0 0 8.48 0 A 11.478 11.478 0 0 0 5.906 0.272 Q 4.032 0.703 2.687 1.817 A 7.124 7.124 0 0 0 2.26 2.2 A 7.227 7.227 0 0 0 0.27 5.816 A 10.944 10.944 0 0 0 0 8.32 Z M 0.76 21.24 L 0.76 8.32 A 9.98 9.98 0 0 1 0.954 6.31 A 7.579 7.579 0 0 1 1.64 4.34 Q 2.52 2.64 4.24 1.72 Q 5.799 0.887 8.015 0.808 A 13.204 13.204 0 0 1 8.48 0.8 Q 10.557 0.8 12.064 1.425 A 6.344 6.344 0 0 1 12.68 1.72 Q 14.36 2.64 15.2 4.3 A 7.556 7.556 0 0 1 15.88 6.364 A 10.424 10.424 0 0 1 16.04 8.24 L 16.04 21.24 A 9.204 9.204 0 0 1 15.882 22.997 Q 15.642 24.23 15.04 25.18 Q 14.04 26.76 12.32 27.54 A 8.715 8.715 0 0 1 9.747 28.244 A 10.92 10.92 0 0 1 8.44 28.32 A 10.008 10.008 0 0 1 6.057 28.045 A 8.585 8.585 0 0 1 4.58 27.54 Q 2.84 26.76 1.8 25.18 A 6.1 6.1 0 0 1 0.945 23.093 Q 0.772 22.29 0.761 21.364 A 10.575 10.575 0 0 1 0.76 21.24 Z" id="0" vector-effect="non-scaling-stroke"/></g></svg>