<svg width="14.082" height="28.4" viewBox="0 0 14.082 28.4" xmlns="http://www.w3.org/2000/svg"><g id="svgGroup" stroke-linecap="round" fill-rule="evenodd" font-size="9pt" stroke="#000" stroke-width="0.25mm" fill="none" style="stroke:#000;stroke-width:0.25mm;fill:none"><path d="M 0.48 4.8 L 1.24 5.08 Q 1.64 3.84 2.42 2.86 Q 3.2 1.88 4.44 1.32 A 6.035 6.035 0 0 1 5.846 0.891 Q 6.477 0.777 7.193 0.762 A 10.302 10.302 0 0 1 7.4 0.76 A 6.37 6.37 0 0 1 9.321 1.042 A 5.666 5.666 0 0 1 10.42 1.52 Q 11.76 2.28 12.54 3.56 Q 13.32 4.84 13.32 6.48 Q 13.32 7.2 13.14 8.06 Q 12.96 8.92 12.58 9.78 A 9.283 9.283 0 0 1 11.886 11.059 A 10.742 10.742 0 0 1 11.6 11.48 L 0 27.6 L 0 28.4 L 14 28.4 L 14 27.6 L 0.88 27.6 L 12.16 11.92 A 12.461 12.461 0 0 0 13.071 10.373 A 9.878 9.878 0 0 0 13.58 9.14 A 10.107 10.107 0 0 0 13.978 7.537 A 8.363 8.363 0 0 0 14.08 6.48 A 7.024 7.024 0 0 0 14.082 6.327 Q 14.082 4.579 13.2 3.18 Q 12.28 1.72 10.8 0.86 Q 9.32 0 7.64 0 A 10.24 10.24 0 0 0 5.965 0.131 A 7.749 7.749 0 0 0 4.44 0.54 Q 3.04 1.08 2.06 2.14 A 7.25 7.25 0 0 0 1.007 3.632 A 9.465 9.465 0 0 0 0.48 4.8 Z" id="0" vector-effect="non-scaling-stroke"/></g></svg>