<svg width="15.56" height="28.48" viewBox="0 0 15.56 28.48" xmlns="http://www.w3.org/2000/svg"><g id="svgGroup" stroke-linecap="round" fill-rule="evenodd" font-size="9pt" stroke="#000" stroke-width="0.25mm" fill="none" style="stroke:#000;stroke-width:0.25mm;fill:none"><path d="M 7.08 11.44 L 5.36 11.44 L 13.36 0.8 L 13.36 0 L 1.76 0 L 1.76 0.8 L 12.4 0.8 L 3.88 12.24 L 7.32 12.24 Q 9.32 12.24 11.02 13.2 Q 12.72 14.16 13.76 15.82 A 6.823 6.823 0 0 1 14.75 18.739 A 8.617 8.617 0 0 1 14.8 19.68 A 9.201 9.201 0 0 1 14.492 22.1 A 7.806 7.806 0 0 1 13.8 23.82 Q 12.8 25.64 11 26.68 A 7.74 7.74 0 0 1 8.054 27.647 A 9.79 9.79 0 0 1 6.84 27.72 Q 4.96 27.72 3.4 26.82 A 7.764 7.764 0 0 1 1.449 25.201 A 9.867 9.867 0 0 1 0.68 24.2 L 0 24.72 Q 1.16 26.44 2.9 27.46 A 7.263 7.263 0 0 0 5.281 28.324 A 9.944 9.944 0 0 0 7.08 28.48 A 8.618 8.618 0 0 0 9.634 28.109 A 7.92 7.92 0 0 0 10.42 27.82 Q 11.96 27.16 13.12 25.98 Q 14.28 24.8 14.92 23.26 A 8.48 8.48 0 0 0 15.55 20.366 A 9.862 9.862 0 0 0 15.56 19.92 A 9.907 9.907 0 0 0 15.314 17.665 A 7.804 7.804 0 0 0 14.44 15.46 Q 13.32 13.56 11.4 12.5 A 8.577 8.577 0 0 0 7.818 11.466 A 10.388 10.388 0 0 0 7.08 11.44 Z" id="0" vector-effect="non-scaling-stroke"/></g></svg>