<svg width="15.36" height="28.48" viewBox="0 0 15.36 28.48" xmlns="http://www.w3.org/2000/svg"><g id="svgGroup" stroke-linecap="round" fill-rule="evenodd" font-size="9pt" stroke="#000" stroke-width="0.25mm" fill="none" style="stroke:#000;stroke-width:0.25mm;fill:none"><path d="M 5.88 11.44 L 2.08 11.52 L 3.24 0.8 L 13.16 0.8 L 13.16 0 L 2.56 0 L 1.24 12.24 L 5.92 12.24 Q 9.08 12.24 10.98 13.36 A 7.478 7.478 0 0 1 12.663 14.69 A 6.31 6.31 0 0 1 13.74 16.26 Q 14.6 18.04 14.6 20 Q 14.6 21.84 13.96 23.28 Q 13.32 24.72 12.22 25.7 Q 11.12 26.68 9.74 27.2 Q 8.36 27.72 6.92 27.72 A 9.755 9.755 0 0 1 4.943 27.525 A 8.788 8.788 0 0 1 4.42 27.4 Q 3.24 27.08 2.3 26.66 A 21.675 21.675 0 0 1 1.754 26.407 Q 1.234 26.158 0.888 25.949 A 5.78 5.78 0 0 1 0.84 25.92 A 18.308 18.308 0 0 0 0.731 25.853 Q 0.34 25.617 0.321 25.637 A 0.004 0.004 0 0 0 0.32 25.64 L 0 26.32 Q 0 26.28 0.54 26.6 A 9.581 9.581 0 0 0 0.919 26.812 Q 1.349 27.041 1.953 27.32 A 32.897 32.897 0 0 0 2.04 27.36 Q 3 27.8 4.26 28.14 A 9.949 9.949 0 0 0 6.251 28.459 A 11.653 11.653 0 0 0 6.96 28.48 Q 8.68 28.48 10.2 27.86 Q 11.72 27.24 12.88 26.1 Q 14.04 24.96 14.7 23.42 A 8.253 8.253 0 0 0 15.337 20.723 A 9.814 9.814 0 0 0 15.36 20.04 A 10.036 10.036 0 0 0 15.037 17.453 A 8.57 8.57 0 0 0 14.34 15.66 A 7.302 7.302 0 0 0 11.682 12.839 A 8.958 8.958 0 0 0 11.24 12.58 A 8.446 8.446 0 0 0 9.19 11.801 Q 7.725 11.44 5.88 11.44 Z" id="0" vector-effect="non-scaling-stroke"/></g></svg>