<svg width="17.081" height="28.361" viewBox="0 0 17.081 28.361" xmlns="http://www.w3.org/2000/svg"><g id="svgGroup" stroke-linecap="round" fill-rule="evenodd" font-size="9pt" stroke="#000" stroke-width="0.25mm" fill="none" style="stroke:#000;stroke-width:0.25mm;fill:none"><path d="M 9.84 0.72 L 11.16 0.72 L 11.16 0 L 9.8 0 Q 6.84 0 4.64 1.12 Q 2.44 2.24 1.22 4.34 A 8.782 8.782 0 0 0 0.202 7.137 A 12.128 12.128 0 0 0 0 9.4 L 0 19.84 Q 0 22.2 1.16 24.14 Q 2.32 26.08 4.26 27.22 Q 6.2 28.36 8.52 28.36 Q 10.28 28.36 11.82 27.7 Q 13.36 27.04 14.54 25.86 Q 15.72 24.68 16.4 23.14 Q 17.08 21.6 17.08 19.84 A 8.516 8.516 0 0 0 16.581 16.897 A 7.889 7.889 0 0 0 15.92 15.52 Q 14.76 13.6 12.8 12.48 Q 10.84 11.36 8.48 11.36 Q 6.96 11.36 5.5 11.88 Q 4.04 12.4 2.84 13.5 Q 1.64 14.6 0.8 16.4 L 0.8 9.6 Q 0.8 6.84 1.86 4.84 Q 2.92 2.84 4.96 1.78 Q 6.999 0.721 9.836 0.72 A 9.813 9.813 0 0 1 9.84 0.72 Z M 8.52 12.12 Q 10.12 12.12 11.52 12.72 Q 12.92 13.32 13.98 14.38 Q 15.04 15.44 15.64 16.84 Q 16.24 18.24 16.24 19.84 Q 16.24 21.44 15.64 22.84 Q 15.04 24.24 13.98 25.32 Q 12.92 26.4 11.52 27 Q 10.12 27.6 8.52 27.6 Q 6.4 27.6 4.64 26.56 Q 2.88 25.52 1.84 23.74 Q 0.8 21.96 0.8 19.84 Q 0.8 18.24 1.4 16.84 Q 2 15.44 3.06 14.38 Q 4.12 13.32 5.52 12.72 Q 6.92 12.12 8.52 12.12 Z" id="0" vector-effect="non-scaling-stroke"/></g></svg>