<svg width="16.56" height="28.84" viewBox="0 0 16.56 28.84" xmlns="http://www.w3.org/2000/svg"><g id="svgGroup" stroke-linecap="round" fill-rule="evenodd" font-size="9pt" stroke="#000" stroke-width="0.25mm" fill="none" style="stroke:#000;stroke-width:0.25mm;fill:none"><path d="M 8.36 0 A 7.011 7.011 0 0 0 6.182 0.33 A 6.271 6.271 0 0 0 4.92 0.9 Q 3.4 1.8 2.52 3.34 A 6.713 6.713 0 0 0 1.671 6.12 A 8.241 8.241 0 0 0 1.64 6.84 Q 1.64 8.16 2.22 9.38 Q 2.8 10.6 3.78 11.54 Q 4.76 12.48 6 12.92 Q 4.28 13.44 2.92 14.56 Q 1.56 15.68 0.78 17.26 Q 0 18.84 0 20.68 A 8.899 8.899 0 0 0 0.311 23.072 A 7.496 7.496 0 0 0 1.1 24.92 Q 2.2 26.76 4.1 27.8 A 8.543 8.543 0 0 0 7.706 28.82 A 10.294 10.294 0 0 0 8.36 28.84 A 8.966 8.966 0 0 0 10.818 28.514 A 7.671 7.671 0 0 0 12.56 27.78 Q 14.4 26.72 15.48 24.86 A 8.055 8.055 0 0 0 16.549 21.147 A 9.679 9.679 0 0 0 16.56 20.68 Q 16.56 18.88 15.78 17.28 Q 15 15.68 13.64 14.52 Q 12.28 13.36 10.56 12.92 Q 12.56 12.24 13.8 10.58 Q 15.04 8.92 15.04 6.84 A 7.817 7.817 0 0 0 14.778 4.782 A 6.634 6.634 0 0 0 14.2 3.34 Q 13.36 1.8 11.86 0.9 A 6.286 6.286 0 0 0 9.446 0.071 A 8.043 8.043 0 0 0 8.36 0 Z M 5.358 27.574 A 7.449 7.449 0 0 0 8.32 28.16 A 8.502 8.502 0 0 0 8.579 28.156 A 7.154 7.154 0 0 0 12.08 27.16 Q 13.76 26.16 14.78 24.46 Q 15.8 22.76 15.8 20.76 Q 15.8 18.72 14.78 17.06 Q 13.76 15.4 12.06 14.4 Q 10.36 13.4 8.32 13.4 A 8.628 8.628 0 0 0 8.199 13.401 A 7.562 7.562 0 0 0 5.4 13.96 Q 4.04 14.52 3 15.52 Q 1.96 16.52 1.38 17.86 A 6.863 6.863 0 0 0 1.154 18.457 A 7.376 7.376 0 0 0 0.8 20.76 Q 0.8 22.76 1.82 24.46 Q 2.84 26.16 4.54 27.16 A 7.194 7.194 0 0 0 5.358 27.574 Z M 8.36 12.68 Q 6.76 12.68 5.4 11.86 Q 4.04 11.04 3.2 9.68 Q 2.36 8.32 2.36 6.72 Q 2.36 5.08 3.18 3.74 Q 4 2.4 5.36 1.6 Q 6.72 0.8 8.36 0.8 Q 10 0.8 11.34 1.6 Q 12.68 2.4 13.48 3.74 Q 14.28 5.08 14.28 6.72 Q 14.28 8.36 13.5 9.72 Q 12.72 11.08 11.38 11.88 A 5.702 5.702 0 0 1 8.672 12.673 A 6.863 6.863 0 0 1 8.36 12.68 Z" id="0" vector-effect="non-scaling-stroke"/></g></svg>