<svg width="17.001" height="28.36" viewBox="0 0 17.001 28.36" xmlns="http://www.w3.org/2000/svg"><g id="svgGroup" stroke-linecap="round" fill-rule="evenodd" font-size="9pt" stroke="#000" stroke-width="0.25mm" fill="none" style="stroke:#000;stroke-width:0.25mm;fill:none"><path d="M 16.24 11.96 L 16.24 18.44 A 11.943 11.943 0 0 1 15.993 20.923 A 9.294 9.294 0 0 1 15.22 23.16 Q 14.2 25.2 12.22 26.36 A 8.164 8.164 0 0 1 9.721 27.298 Q 8.643 27.52 7.4 27.52 L 5.88 27.52 L 5.88 28.36 L 7.28 28.36 A 11.644 11.644 0 0 0 10.098 28.032 A 9.565 9.565 0 0 0 12.32 27.18 Q 14.52 26 15.76 23.8 A 9.419 9.419 0 0 0 16.811 20.807 A 12.772 12.772 0 0 0 17 18.56 L 17 8.48 A 8.826 8.826 0 0 0 16.552 5.635 A 8.014 8.014 0 0 0 15.88 4.16 Q 14.76 2.24 12.84 1.12 Q 10.92 0 8.52 0 Q 6.76 0 5.22 0.66 Q 3.68 1.32 2.5 2.48 Q 1.32 3.64 0.66 5.18 Q 0 6.72 0 8.48 A 8.674 8.674 0 0 0 0.468 11.358 A 7.948 7.948 0 0 0 1.14 12.8 Q 2.28 14.72 4.22 15.84 A 8.434 8.434 0 0 0 8.188 16.953 A 10.062 10.062 0 0 0 8.56 16.96 Q 10.12 16.96 11.56 16.46 A 7.448 7.448 0 0 0 13.834 15.175 A 8.746 8.746 0 0 0 14.22 14.84 Q 15.44 13.72 16.24 11.96 Z M 8.52 0.76 Q 10.64 0.76 12.4 1.78 Q 14.16 2.8 15.2 4.54 A 7.396 7.396 0 0 1 16.236 8.172 A 8.813 8.813 0 0 1 16.24 8.44 Q 16.24 10.04 15.64 11.46 Q 15.04 12.88 13.98 13.96 Q 12.92 15.04 11.52 15.64 Q 10.12 16.24 8.52 16.24 Q 6.92 16.24 5.52 15.64 Q 4.12 15.04 3.04 13.96 Q 1.96 12.88 1.36 11.46 A 7.727 7.727 0 0 1 0.763 8.604 A 8.856 8.856 0 0 1 0.76 8.4 A 7.514 7.514 0 0 1 1.156 5.945 A 7.069 7.069 0 0 1 1.36 5.42 Q 1.96 4.04 3.04 2.98 Q 4.12 1.92 5.52 1.34 Q 6.92 0.76 8.52 0.76 Z" id="0" vector-effect="non-scaling-stroke"/></g></svg>