<svg width="17.36" height="28" viewBox="0 0 17.36 28" xmlns="http://www.w3.org/2000/svg"><g id="svgGroup" stroke-linecap="round" fill-rule="evenodd" font-size="9pt" stroke="#000" stroke-width="0.25mm" fill="none" style="stroke:#000;stroke-width:0.25mm;fill:none"><path d="M 8.76 0 L 0 0 L 0 28 L 9.16 28 Q 11.538 28 13.238 27.181 A 6.748 6.748 0 0 0 13.66 26.96 Q 15.48 25.92 16.42 24.04 A 8.707 8.707 0 0 0 17.205 21.582 A 11.651 11.651 0 0 0 17.36 19.64 A 9.575 9.575 0 0 0 16.935 16.765 A 8.945 8.945 0 0 0 16.76 16.26 Q 16.16 14.68 14.96 13.52 A 5.995 5.995 0 0 0 12.989 12.265 A 7.767 7.767 0 0 0 11.88 11.92 Q 13.12 11.56 14.02 10.68 Q 14.92 9.8 15.4 8.66 Q 15.88 7.52 15.88 6.4 Q 15.88 4.522 15.205 3.194 A 5.111 5.111 0 0 0 15.02 2.86 A 5.352 5.352 0 0 0 12.635 0.754 A 6.487 6.487 0 0 0 12.56 0.72 A 7.853 7.853 0 0 0 10.691 0.158 Q 9.847 0.01 8.888 0.001 A 13.284 13.284 0 0 0 8.76 0 Z M 9.2 27.24 L 0.76 27.24 L 0.76 12.24 L 9.28 12.24 Q 11.579 12.24 13.191 13.163 A 6.024 6.024 0 0 1 13.22 13.18 Q 14.84 14.12 15.72 15.78 A 7.477 7.477 0 0 1 16.496 18.191 A 9.75 9.75 0 0 1 16.6 19.64 A 10.508 10.508 0 0 1 16.415 21.654 A 7.991 7.991 0 0 1 15.76 23.64 Q 14.92 25.36 13.28 26.3 Q 11.64 27.24 9.2 27.24 Z M 10.28 11.52 L 0.76 11.52 L 0.76 0.76 L 8.6 0.76 Q 10.92 0.76 12.34 1.48 Q 13.76 2.2 14.44 3.44 Q 15.12 4.68 15.12 6.32 A 5.874 5.874 0 0 1 14.897 7.962 A 5.115 5.115 0 0 1 14.48 8.98 Q 13.84 10.16 12.76 10.84 A 4.44 4.44 0 0 1 10.71 11.503 A 5.475 5.475 0 0 1 10.28 11.52 Z" id="0" vector-effect="non-scaling-stroke"/></g></svg>