<svg width="16.48" height="28.76" viewBox="0 0 16.48 28.76" xmlns="http://www.w3.org/2000/svg"><g id="svgGroup" stroke-linecap="round" fill-rule="evenodd" font-size="9pt" stroke="#000" stroke-width="0.25mm" fill="none" style="stroke:#000;stroke-width:0.25mm;fill:none"><path d="M 13.2 2 L 13.48 1.32 Q 12.64 0.88 11.72 0.58 Q 10.8 0.28 9.82 0.14 Q 8.84 0 7.8 0 A 10.792 10.792 0 0 0 5.881 0.162 Q 4.573 0.398 3.54 0.98 Q 1.8 1.96 0.9 3.8 A 8.493 8.493 0 0 0 0.198 5.958 Q 0.014 6.927 0.001 8.032 A 14.364 14.364 0 0 0 0 8.2 L 0 20.8 A 11.688 11.688 0 0 0 0.156 22.76 Q 0.343 23.862 0.757 24.771 A 6.789 6.789 0 0 0 0.96 25.18 Q 1.92 26.96 3.74 27.86 A 8.328 8.328 0 0 0 5.883 28.562 Q 6.823 28.742 7.897 28.758 A 14.29 14.29 0 0 0 8.12 28.76 A 10.883 10.883 0 0 0 10.268 28.555 A 9.321 9.321 0 0 0 11.38 28.26 A 8.484 8.484 0 0 0 13.263 27.374 A 7.54 7.54 0 0 0 14 26.84 A 6.728 6.728 0 0 0 15.318 25.408 A 6.108 6.108 0 0 0 15.72 24.72 L 15.72 28.36 L 16.48 28.36 L 16.48 16.36 L 8.4 16.36 L 8.72 17.12 L 15.72 17.12 L 15.72 21.04 A 8.907 8.907 0 0 1 15.589 22.602 A 6.787 6.787 0 0 1 15.18 24.02 A 5.907 5.907 0 0 1 13.941 25.915 A 5.676 5.676 0 0 1 13.64 26.2 A 6.741 6.741 0 0 1 11.615 27.419 A 7.825 7.825 0 0 1 11.28 27.54 A 8.634 8.634 0 0 1 9.48 27.933 A 11.032 11.032 0 0 1 8.24 28 Q 6.121 28 4.566 27.339 A 6.713 6.713 0 0 1 4.22 27.18 Q 2.56 26.36 1.68 24.78 A 6.635 6.635 0 0 1 1 22.923 Q 0.8 21.986 0.8 20.88 L 0.8 8.48 A 13.458 13.458 0 0 1 0.922 6.616 Q 1.061 5.623 1.359 4.783 A 7.571 7.571 0 0 1 1.54 4.32 Q 2.28 2.6 3.84 1.66 A 6.006 6.006 0 0 1 5.451 1.001 Q 6.197 0.809 7.077 0.748 A 12.24 12.24 0 0 1 7.92 0.72 A 11.739 11.739 0 0 1 9.26 0.799 A 13.31 13.31 0 0 1 9.58 0.84 A 11.159 11.159 0 0 1 10.847 1.095 A 13.036 13.036 0 0 1 11.36 1.24 A 10.546 10.546 0 0 1 12.913 1.855 A 11.897 11.897 0 0 1 13.2 2 Z" id="0" vector-effect="non-scaling-stroke"/></g></svg>