<svg width="17.4" height="28" viewBox="0 0 17.4 28" xmlns="http://www.w3.org/2000/svg"><g id="svgGroup" stroke-linecap="round" fill-rule="evenodd" font-size="9pt" stroke="#000" stroke-width="0.25mm" fill="none" style="stroke:#000;stroke-width:0.25mm;fill:none"><path d="M 10 0 L 0 0 L 0 28 L 0.76 28 L 0.76 16.76 L 9.72 16.76 Q 9.96 16.76 10.2 16.74 Q 10.44 16.72 10.68 16.68 Q 10.92 16.64 11.16 16.64 L 16.6 28 L 17.4 28 L 11.92 16.56 A 8.098 8.098 0 0 0 13.45 16.089 A 5.846 5.846 0 0 0 15.04 15.1 Q 16.24 14.04 16.82 12.32 Q 17.342 10.771 17.394 8.704 A 18.442 18.442 0 0 0 17.4 8.24 Q 17.4 6.32 16.96 4.78 A 7.441 7.441 0 0 0 16.357 3.279 A 6.09 6.09 0 0 0 15.6 2.18 A 5.93 5.93 0 0 0 13.407 0.605 A 6.908 6.908 0 0 0 13.3 0.56 A 7.223 7.223 0 0 0 11.811 0.144 Q 10.975 0 10 0 Z M 9.68 16 L 0.76 16 L 0.76 0.8 L 10.04 0.8 A 10.351 10.351 0 0 1 11.384 0.883 Q 12.074 0.973 12.66 1.163 A 5.716 5.716 0 0 1 13.04 1.3 A 5.234 5.234 0 0 1 14.566 2.231 A 4.861 4.861 0 0 1 15.08 2.76 A 5.764 5.764 0 0 1 15.981 4.279 A 7.238 7.238 0 0 1 16.26 5.1 Q 16.64 6.48 16.64 8.24 Q 16.64 10.12 16.24 11.58 Q 15.84 13.04 15 14.02 A 5.094 5.094 0 0 1 13.241 15.332 A 6.158 6.158 0 0 1 12.84 15.5 Q 11.662 15.946 10.071 15.994 A 12.936 12.936 0 0 1 9.68 16 Z" id="0" vector-effect="non-scaling-stroke"/></g></svg>