<svg width="16.8" height="28.44" viewBox="0 0 16.8 28.44" xmlns="http://www.w3.org/2000/svg"><g id="svgGroup" stroke-linecap="round" fill-rule="evenodd" font-size="9pt" stroke="#000" stroke-width="0.25mm" fill="none" style="stroke:#000;stroke-width:0.25mm;fill:none"><path d="M 16.8 20.56 L 16.8 0 L 16 0 L 16 20.6 A 9.811 9.811 0 0 1 15.857 22.325 Q 15.678 23.323 15.278 24.137 A 5.727 5.727 0 0 1 15.06 24.54 Q 14.12 26.12 12.42 26.9 A 8.315 8.315 0 0 1 10.324 27.531 A 11.343 11.343 0 0 1 8.44 27.68 A 10.378 10.378 0 0 1 6.232 27.454 A 8.407 8.407 0 0 1 4.5 26.88 Q 2.76 26.08 1.74 24.5 Q 0.72 22.92 0.72 20.6 L 0.72 0 L 0 0 L 0 20.56 A 10.559 10.559 0 0 0 0.172 22.516 Q 0.427 23.868 1.06 24.92 Q 2.12 26.68 4.04 27.56 A 9.547 9.547 0 0 0 6.659 28.316 A 12.377 12.377 0 0 0 8.44 28.44 A 11.63 11.63 0 0 0 10.633 28.242 A 8.862 8.862 0 0 0 12.8 27.54 Q 14.68 26.64 15.74 24.88 Q 16.771 23.168 16.799 20.699 A 12.21 12.21 0 0 0 16.8 20.56 Z" id="0" vector-effect="non-scaling-stroke"/></g></svg>