<svg width="17.76" height="28.28" viewBox="0 0 17.76 28.28" xmlns="http://www.w3.org/2000/svg"><g id="svgGroup" stroke-linecap="round" fill-rule="evenodd" font-size="9pt" stroke="#000" stroke-width="0.25mm" fill="none" style="stroke:#000;stroke-width:0.25mm;fill:none"><path d="M 17.76 22.16 L 17.76 0 L 16.96 0 L 16.96 10.76 Q 16.96 12.44 16.32 13.68 Q 15.68 14.92 14.6 15.76 A 7.446 7.446 0 0 1 12.337 16.952 A 8.519 8.519 0 0 1 12.12 17.02 Q 10.72 17.44 9.2 17.44 A 14.658 14.658 0 0 1 7.166 17.307 Q 6.095 17.156 5.194 16.837 A 8.031 8.031 0 0 1 4.6 16.6 Q 2.72 15.76 1.74 14.04 Q 0.907 12.577 0.782 10.419 A 13.529 13.529 0 0 1 0.76 9.64 L 0.76 0 L 0 0 L 0 9.84 Q 0 12.308 0.873 14.067 A 6.915 6.915 0 0 0 1.06 14.42 Q 2.12 16.28 4.14 17.24 Q 6.038 18.142 8.659 18.196 A 16.37 16.37 0 0 0 9 18.2 A 14.243 14.243 0 0 0 10.649 18.11 Q 11.498 18.011 12.211 17.803 A 6.714 6.714 0 0 0 13.18 17.44 Q 14.56 16.793 15.432 15.972 A 5.732 5.732 0 0 0 15.72 15.68 A 11.843 11.843 0 0 0 16.225 15.097 Q 16.684 14.528 16.91 14.067 A 3.062 3.062 0 0 0 16.96 13.96 L 16.96 21.88 A 13.825 13.825 0 0 1 16.927 22.867 Q 16.854 23.885 16.62 24.6 Q 16.28 25.64 15.72 26.24 Q 15.16 26.84 14.52 27.12 Q 13.88 27.4 13.32 27.56 L 13.56 28.28 A 6.2 6.2 0 0 0 15.108 27.678 A 4.763 4.763 0 0 0 16.7 26.24 A 5.427 5.427 0 0 0 17.461 24.586 Q 17.667 23.853 17.731 22.981 A 11.178 11.178 0 0 0 17.76 22.16 Z" id="0" vector-effect="non-scaling-stroke"/></g></svg>